G75*
%MOIN*%
%OFA0B0*%
%FSLAX25Y25*%
%IPPOS*%
%LPD*%
%AMOC8*
5,1,8,0,0,1.08239X$1,22.5*
%
%ADD10C,0.07400*%
%ADD11R,0.05550X0.05550*%
%ADD12OC8,0.05550*%
%ADD13C,0.00600*%
D10*
X0026300Y0016800D03*
X0036300Y0016800D03*
X0046300Y0016800D03*
X0056300Y0016800D03*
X0066300Y0016800D03*
X0076300Y0016800D03*
X0086300Y0016800D03*
X0096300Y0016800D03*
X0106300Y0016800D03*
X0116300Y0016800D03*
X0126300Y0016800D03*
X0136300Y0016800D03*
X0146300Y0016800D03*
X0156300Y0016800D03*
X0166300Y0016800D03*
X0176300Y0016800D03*
X0186300Y0016800D03*
X0196300Y0016800D03*
X0266300Y0031800D03*
X0276300Y0031800D03*
X0286300Y0031800D03*
X0296300Y0031800D03*
X0306300Y0031800D03*
X0316300Y0031800D03*
X0316300Y0081800D03*
X0306300Y0081800D03*
X0296300Y0081800D03*
X0286300Y0081800D03*
X0276300Y0081800D03*
X0266300Y0081800D03*
X0326300Y0081800D03*
X0196300Y0141800D03*
X0186300Y0141800D03*
X0176300Y0141800D03*
X0166300Y0141800D03*
X0156300Y0141800D03*
X0146300Y0141800D03*
X0136300Y0141800D03*
X0126300Y0141800D03*
X0116300Y0141800D03*
X0106300Y0141800D03*
X0096300Y0141800D03*
X0086300Y0141800D03*
X0076300Y0141800D03*
X0066300Y0141800D03*
X0056300Y0141800D03*
X0046300Y0141800D03*
X0036300Y0141800D03*
X0026300Y0141800D03*
D11*
X0026300Y0121800D03*
X0026300Y0031800D03*
D12*
X0036300Y0031800D03*
X0046300Y0031800D03*
X0056300Y0031800D03*
X0066300Y0031800D03*
X0076300Y0031800D03*
X0086300Y0031800D03*
X0096300Y0031800D03*
X0106300Y0031800D03*
X0116300Y0031800D03*
X0126300Y0031800D03*
X0136300Y0031800D03*
X0146300Y0031800D03*
X0156300Y0031800D03*
X0166300Y0031800D03*
X0176300Y0031800D03*
X0186300Y0031800D03*
X0196300Y0031800D03*
X0196300Y0121800D03*
X0186300Y0121800D03*
X0176300Y0121800D03*
X0166300Y0121800D03*
X0156300Y0121800D03*
X0146300Y0121800D03*
X0136300Y0121800D03*
X0126300Y0121800D03*
X0116300Y0121800D03*
X0106300Y0121800D03*
X0096300Y0121800D03*
X0086300Y0121800D03*
X0076300Y0121800D03*
X0066300Y0121800D03*
X0056300Y0121800D03*
X0046300Y0121800D03*
X0036300Y0121800D03*
D13*
X0002400Y0158180D02*
X0002400Y0002900D01*
X0393901Y0002900D01*
X0393901Y0158180D01*
X0002400Y0158180D01*
X0002400Y0158011D02*
X0393901Y0158011D01*
X0393901Y0157413D02*
X0002400Y0157413D01*
X0002400Y0156814D02*
X0393901Y0156814D01*
X0393901Y0156216D02*
X0002400Y0156216D01*
X0002400Y0155617D02*
X0393901Y0155617D01*
X0393901Y0155019D02*
X0002400Y0155019D01*
X0002400Y0154420D02*
X0393901Y0154420D01*
X0393901Y0153822D02*
X0002400Y0153822D01*
X0002400Y0153223D02*
X0393901Y0153223D01*
X0393901Y0152625D02*
X0002400Y0152625D01*
X0002400Y0152026D02*
X0393901Y0152026D01*
X0393901Y0151428D02*
X0002400Y0151428D01*
X0002400Y0150829D02*
X0393901Y0150829D01*
X0393901Y0150231D02*
X0002400Y0150231D01*
X0002400Y0149632D02*
X0393901Y0149632D01*
X0393901Y0149034D02*
X0002400Y0149034D01*
X0002400Y0148435D02*
X0393901Y0148435D01*
X0393901Y0147837D02*
X0002400Y0147837D01*
X0002400Y0147238D02*
X0393901Y0147238D01*
X0393901Y0146640D02*
X0002400Y0146640D01*
X0002400Y0146041D02*
X0023996Y0146041D01*
X0023581Y0145869D02*
X0022231Y0144519D01*
X0021500Y0142755D01*
X0021500Y0140845D01*
X0022231Y0139081D01*
X0023581Y0137731D01*
X0025345Y0137000D01*
X0027255Y0137000D01*
X0029019Y0137731D01*
X0030369Y0139081D01*
X0031100Y0140845D01*
X0031100Y0142755D01*
X0030369Y0144519D01*
X0029019Y0145869D01*
X0027255Y0146600D01*
X0025345Y0146600D01*
X0023581Y0145869D01*
X0023155Y0145443D02*
X0002400Y0145443D01*
X0002400Y0144844D02*
X0022556Y0144844D01*
X0022118Y0144246D02*
X0002400Y0144246D01*
X0002400Y0143647D02*
X0021870Y0143647D01*
X0021622Y0143049D02*
X0002400Y0143049D01*
X0002400Y0142450D02*
X0021500Y0142450D01*
X0021500Y0141852D02*
X0002400Y0141852D01*
X0002400Y0141253D02*
X0021500Y0141253D01*
X0021579Y0140655D02*
X0002400Y0140655D01*
X0002400Y0140056D02*
X0021827Y0140056D01*
X0022075Y0139458D02*
X0002400Y0139458D01*
X0002400Y0138859D02*
X0022453Y0138859D01*
X0023051Y0138261D02*
X0002400Y0138261D01*
X0002400Y0137662D02*
X0023747Y0137662D01*
X0025192Y0137064D02*
X0002400Y0137064D01*
X0002400Y0136465D02*
X0393901Y0136465D01*
X0393901Y0135867D02*
X0002400Y0135867D01*
X0002400Y0135268D02*
X0393901Y0135268D01*
X0393901Y0134670D02*
X0002400Y0134670D01*
X0002400Y0134071D02*
X0393901Y0134071D01*
X0393901Y0133472D02*
X0002400Y0133472D01*
X0002400Y0132874D02*
X0393901Y0132874D01*
X0393901Y0132275D02*
X0002400Y0132275D01*
X0002400Y0131677D02*
X0393901Y0131677D01*
X0393901Y0131078D02*
X0002400Y0131078D01*
X0002400Y0130480D02*
X0393901Y0130480D01*
X0393901Y0129881D02*
X0002400Y0129881D01*
X0002400Y0129283D02*
X0393901Y0129283D01*
X0393901Y0128684D02*
X0002400Y0128684D01*
X0002400Y0128086D02*
X0393901Y0128086D01*
X0393901Y0127487D02*
X0002400Y0127487D01*
X0002400Y0126889D02*
X0393901Y0126889D01*
X0393901Y0126290D02*
X0002400Y0126290D01*
X0002400Y0125692D02*
X0022860Y0125692D01*
X0022727Y0125615D02*
X0022485Y0125373D01*
X0022314Y0125077D01*
X0022225Y0124746D01*
X0022225Y0122100D01*
X0026000Y0122100D01*
X0026000Y0125875D01*
X0023354Y0125875D01*
X0023023Y0125786D01*
X0022727Y0125615D01*
X0022323Y0125093D02*
X0002400Y0125093D01*
X0002400Y0124495D02*
X0022225Y0124495D01*
X0022225Y0123896D02*
X0002400Y0123896D01*
X0002400Y0123298D02*
X0022225Y0123298D01*
X0022225Y0122699D02*
X0002400Y0122699D01*
X0002400Y0122101D02*
X0022225Y0122101D01*
X0022225Y0121500D02*
X0022225Y0118854D01*
X0022314Y0118523D01*
X0022485Y0118227D01*
X0022727Y0117985D01*
X0023023Y0117814D01*
X0023354Y0117725D01*
X0026000Y0117725D01*
X0026000Y0121500D01*
X0026600Y0121500D01*
X0026600Y0122100D01*
X0030375Y0122100D01*
X0030375Y0124746D01*
X0030286Y0125077D01*
X0030115Y0125373D01*
X0029873Y0125615D01*
X0029577Y0125786D01*
X0029246Y0125875D01*
X0026600Y0125875D01*
X0026600Y0122100D01*
X0026000Y0122100D01*
X0026000Y0121500D01*
X0022225Y0121500D01*
X0022225Y0120904D02*
X0002400Y0120904D01*
X0002400Y0121502D02*
X0026000Y0121502D01*
X0026000Y0120904D02*
X0026600Y0120904D01*
X0026600Y0121500D02*
X0026600Y0117725D01*
X0029246Y0117725D01*
X0029577Y0117814D01*
X0029873Y0117985D01*
X0030115Y0118227D01*
X0030286Y0118523D01*
X0030375Y0118854D01*
X0030375Y0121500D01*
X0026600Y0121500D01*
X0026600Y0121502D02*
X0032425Y0121502D01*
X0032425Y0120904D02*
X0030375Y0120904D01*
X0030375Y0120305D02*
X0032425Y0120305D01*
X0032425Y0120195D02*
X0034695Y0117925D01*
X0037905Y0117925D01*
X0040175Y0120195D01*
X0040175Y0123405D01*
X0037905Y0125675D01*
X0034695Y0125675D01*
X0032425Y0123405D01*
X0032425Y0120195D01*
X0032913Y0119707D02*
X0030375Y0119707D01*
X0030375Y0119108D02*
X0033512Y0119108D01*
X0034110Y0118510D02*
X0030278Y0118510D01*
X0029745Y0117911D02*
X0393901Y0117911D01*
X0393901Y0117313D02*
X0002400Y0117313D01*
X0002400Y0117911D02*
X0022855Y0117911D01*
X0022322Y0118510D02*
X0002400Y0118510D01*
X0002400Y0119108D02*
X0022225Y0119108D01*
X0022225Y0119707D02*
X0002400Y0119707D01*
X0002400Y0120305D02*
X0022225Y0120305D01*
X0026000Y0120305D02*
X0026600Y0120305D01*
X0026600Y0119707D02*
X0026000Y0119707D01*
X0026000Y0119108D02*
X0026600Y0119108D01*
X0026600Y0118510D02*
X0026000Y0118510D01*
X0026000Y0117911D02*
X0026600Y0117911D01*
X0026600Y0122101D02*
X0026000Y0122101D01*
X0026000Y0122699D02*
X0026600Y0122699D01*
X0026600Y0123298D02*
X0026000Y0123298D01*
X0026000Y0123896D02*
X0026600Y0123896D01*
X0026600Y0124495D02*
X0026000Y0124495D01*
X0026000Y0125093D02*
X0026600Y0125093D01*
X0026600Y0125692D02*
X0026000Y0125692D01*
X0029740Y0125692D02*
X0393901Y0125692D01*
X0393901Y0125093D02*
X0198486Y0125093D01*
X0197905Y0125675D02*
X0194695Y0125675D01*
X0192425Y0123405D01*
X0192425Y0120195D01*
X0194695Y0117925D01*
X0197905Y0117925D01*
X0200175Y0120195D01*
X0200175Y0123405D01*
X0197905Y0125675D01*
X0199085Y0124495D02*
X0393901Y0124495D01*
X0393901Y0123896D02*
X0199683Y0123896D01*
X0200175Y0123298D02*
X0393901Y0123298D01*
X0393901Y0122699D02*
X0200175Y0122699D01*
X0200175Y0122101D02*
X0393901Y0122101D01*
X0393901Y0121502D02*
X0200175Y0121502D01*
X0200175Y0120904D02*
X0393901Y0120904D01*
X0393901Y0120305D02*
X0200175Y0120305D01*
X0199687Y0119707D02*
X0393901Y0119707D01*
X0393901Y0119108D02*
X0199088Y0119108D01*
X0198489Y0118510D02*
X0393901Y0118510D01*
X0393901Y0116714D02*
X0002400Y0116714D01*
X0002400Y0116116D02*
X0393901Y0116116D01*
X0393901Y0115517D02*
X0002400Y0115517D01*
X0002400Y0114919D02*
X0393901Y0114919D01*
X0393901Y0114320D02*
X0002400Y0114320D01*
X0002400Y0113722D02*
X0393901Y0113722D01*
X0393901Y0113123D02*
X0002400Y0113123D01*
X0002400Y0112525D02*
X0393901Y0112525D01*
X0393901Y0111926D02*
X0002400Y0111926D01*
X0002400Y0111328D02*
X0393901Y0111328D01*
X0393901Y0110729D02*
X0002400Y0110729D01*
X0002400Y0110131D02*
X0393901Y0110131D01*
X0393901Y0109532D02*
X0002400Y0109532D01*
X0002400Y0108934D02*
X0393901Y0108934D01*
X0393901Y0108335D02*
X0002400Y0108335D01*
X0002400Y0107737D02*
X0393901Y0107737D01*
X0393901Y0107138D02*
X0002400Y0107138D01*
X0002400Y0106539D02*
X0393901Y0106539D01*
X0393901Y0105941D02*
X0002400Y0105941D01*
X0002400Y0105342D02*
X0393901Y0105342D01*
X0393901Y0104744D02*
X0002400Y0104744D01*
X0002400Y0104145D02*
X0393901Y0104145D01*
X0393901Y0103547D02*
X0002400Y0103547D01*
X0002400Y0102948D02*
X0393901Y0102948D01*
X0393901Y0102350D02*
X0002400Y0102350D01*
X0002400Y0101751D02*
X0393901Y0101751D01*
X0393901Y0101153D02*
X0002400Y0101153D01*
X0002400Y0100554D02*
X0393901Y0100554D01*
X0393901Y0099956D02*
X0002400Y0099956D01*
X0002400Y0099357D02*
X0393901Y0099357D01*
X0393901Y0098759D02*
X0002400Y0098759D01*
X0002400Y0098160D02*
X0393901Y0098160D01*
X0393901Y0097562D02*
X0002400Y0097562D01*
X0002400Y0096963D02*
X0393901Y0096963D01*
X0393901Y0096365D02*
X0002400Y0096365D01*
X0002400Y0095766D02*
X0393901Y0095766D01*
X0393901Y0095168D02*
X0002400Y0095168D01*
X0002400Y0094569D02*
X0393901Y0094569D01*
X0393901Y0093971D02*
X0002400Y0093971D01*
X0002400Y0093372D02*
X0393901Y0093372D01*
X0393901Y0092774D02*
X0002400Y0092774D01*
X0002400Y0092175D02*
X0393901Y0092175D01*
X0393901Y0091577D02*
X0002400Y0091577D01*
X0002400Y0090978D02*
X0393901Y0090978D01*
X0393901Y0090380D02*
X0002400Y0090380D01*
X0002400Y0089781D02*
X0393901Y0089781D01*
X0393901Y0089183D02*
X0002400Y0089183D01*
X0002400Y0088584D02*
X0393901Y0088584D01*
X0393901Y0087986D02*
X0002400Y0087986D01*
X0002400Y0087387D02*
X0393901Y0087387D01*
X0393901Y0086789D02*
X0296765Y0086789D01*
X0296694Y0086800D02*
X0296600Y0086800D01*
X0296600Y0082100D01*
X0296000Y0082100D01*
X0296000Y0086800D01*
X0295906Y0086800D01*
X0295129Y0086677D01*
X0294381Y0086434D01*
X0293679Y0086076D01*
X0293043Y0085614D01*
X0292486Y0085057D01*
X0292024Y0084421D01*
X0291666Y0083719D01*
X0291423Y0082971D01*
X0291300Y0082194D01*
X0291300Y0082100D01*
X0296000Y0082100D01*
X0296000Y0081500D01*
X0291300Y0081500D01*
X0291300Y0081406D01*
X0291423Y0080629D01*
X0291666Y0079881D01*
X0292024Y0079179D01*
X0292486Y0078543D01*
X0293043Y0077986D01*
X0293679Y0077524D01*
X0294381Y0077166D01*
X0295129Y0076923D01*
X0295906Y0076800D01*
X0296000Y0076800D01*
X0296000Y0081500D01*
X0296600Y0081500D01*
X0296600Y0082100D01*
X0301300Y0082100D01*
X0301300Y0082194D01*
X0301177Y0082971D01*
X0300934Y0083719D01*
X0300576Y0084421D01*
X0300114Y0085057D01*
X0299557Y0085614D01*
X0298921Y0086076D01*
X0298219Y0086434D01*
X0297471Y0086677D01*
X0296694Y0086800D01*
X0296600Y0086789D02*
X0296000Y0086789D01*
X0295835Y0086789D02*
X0002400Y0086789D01*
X0002400Y0086190D02*
X0264356Y0086190D01*
X0263581Y0085869D02*
X0262231Y0084519D01*
X0261500Y0082755D01*
X0261500Y0080845D01*
X0262231Y0079081D01*
X0263581Y0077731D01*
X0265345Y0077000D01*
X0267255Y0077000D01*
X0269019Y0077731D01*
X0270369Y0079081D01*
X0271100Y0080845D01*
X0271100Y0082755D01*
X0270369Y0084519D01*
X0269019Y0085869D01*
X0267255Y0086600D01*
X0265345Y0086600D01*
X0263581Y0085869D01*
X0263303Y0085592D02*
X0002400Y0085592D01*
X0002400Y0084993D02*
X0262705Y0084993D01*
X0262179Y0084395D02*
X0002400Y0084395D01*
X0002400Y0083796D02*
X0261931Y0083796D01*
X0261683Y0083198D02*
X0002400Y0083198D01*
X0002400Y0082599D02*
X0261500Y0082599D01*
X0261500Y0082001D02*
X0002400Y0082001D01*
X0002400Y0081402D02*
X0261500Y0081402D01*
X0261517Y0080803D02*
X0002400Y0080803D01*
X0002400Y0080205D02*
X0261765Y0080205D01*
X0262013Y0079606D02*
X0002400Y0079606D01*
X0002400Y0079008D02*
X0262304Y0079008D01*
X0262902Y0078409D02*
X0002400Y0078409D01*
X0002400Y0077811D02*
X0263501Y0077811D01*
X0264832Y0077212D02*
X0002400Y0077212D01*
X0002400Y0076614D02*
X0393901Y0076614D01*
X0393901Y0077212D02*
X0327768Y0077212D01*
X0327255Y0077000D02*
X0329019Y0077731D01*
X0330369Y0079081D01*
X0331100Y0080845D01*
X0331100Y0082755D01*
X0330369Y0084519D01*
X0329019Y0085869D01*
X0327255Y0086600D01*
X0325345Y0086600D01*
X0323581Y0085869D01*
X0322231Y0084519D01*
X0321500Y0082755D01*
X0321500Y0080845D01*
X0322231Y0079081D01*
X0323581Y0077731D01*
X0325345Y0077000D01*
X0327255Y0077000D01*
X0329099Y0077811D02*
X0393901Y0077811D01*
X0393901Y0078409D02*
X0329698Y0078409D01*
X0330296Y0079008D02*
X0393901Y0079008D01*
X0393901Y0079606D02*
X0330587Y0079606D01*
X0330835Y0080205D02*
X0393901Y0080205D01*
X0393901Y0080803D02*
X0331083Y0080803D01*
X0331100Y0081402D02*
X0393901Y0081402D01*
X0393901Y0082001D02*
X0331100Y0082001D01*
X0331100Y0082599D02*
X0393901Y0082599D01*
X0393901Y0083198D02*
X0330917Y0083198D01*
X0330669Y0083796D02*
X0393901Y0083796D01*
X0393901Y0084395D02*
X0330421Y0084395D01*
X0329895Y0084993D02*
X0393901Y0084993D01*
X0393901Y0085592D02*
X0329297Y0085592D01*
X0328244Y0086190D02*
X0393901Y0086190D01*
X0393901Y0076015D02*
X0002400Y0076015D01*
X0002400Y0075417D02*
X0393901Y0075417D01*
X0393901Y0074818D02*
X0002400Y0074818D01*
X0002400Y0074220D02*
X0393901Y0074220D01*
X0393901Y0073621D02*
X0002400Y0073621D01*
X0002400Y0073023D02*
X0393901Y0073023D01*
X0393901Y0072424D02*
X0002400Y0072424D01*
X0002400Y0071826D02*
X0393901Y0071826D01*
X0393901Y0071227D02*
X0002400Y0071227D01*
X0002400Y0070629D02*
X0393901Y0070629D01*
X0393901Y0070030D02*
X0002400Y0070030D01*
X0002400Y0069432D02*
X0393901Y0069432D01*
X0393901Y0068833D02*
X0002400Y0068833D01*
X0002400Y0068235D02*
X0393901Y0068235D01*
X0393901Y0067636D02*
X0002400Y0067636D01*
X0002400Y0067038D02*
X0393901Y0067038D01*
X0393901Y0066439D02*
X0002400Y0066439D01*
X0002400Y0065841D02*
X0393901Y0065841D01*
X0393901Y0065242D02*
X0002400Y0065242D01*
X0002400Y0064644D02*
X0393901Y0064644D01*
X0393901Y0064045D02*
X0002400Y0064045D01*
X0002400Y0063447D02*
X0393901Y0063447D01*
X0393901Y0062848D02*
X0002400Y0062848D01*
X0002400Y0062250D02*
X0393901Y0062250D01*
X0393901Y0061651D02*
X0002400Y0061651D01*
X0002400Y0061053D02*
X0393901Y0061053D01*
X0393901Y0060454D02*
X0002400Y0060454D01*
X0002400Y0059856D02*
X0393901Y0059856D01*
X0393901Y0059257D02*
X0002400Y0059257D01*
X0002400Y0058659D02*
X0393901Y0058659D01*
X0393901Y0058060D02*
X0002400Y0058060D01*
X0002400Y0057462D02*
X0393901Y0057462D01*
X0393901Y0056863D02*
X0002400Y0056863D01*
X0002400Y0056265D02*
X0393901Y0056265D01*
X0393901Y0055666D02*
X0002400Y0055666D01*
X0002400Y0055068D02*
X0393901Y0055068D01*
X0393901Y0054469D02*
X0002400Y0054469D01*
X0002400Y0053870D02*
X0393901Y0053870D01*
X0393901Y0053272D02*
X0002400Y0053272D01*
X0002400Y0052673D02*
X0393901Y0052673D01*
X0393901Y0052075D02*
X0002400Y0052075D01*
X0002400Y0051476D02*
X0393901Y0051476D01*
X0393901Y0050878D02*
X0002400Y0050878D01*
X0002400Y0050279D02*
X0393901Y0050279D01*
X0393901Y0049681D02*
X0002400Y0049681D01*
X0002400Y0049082D02*
X0393901Y0049082D01*
X0393901Y0048484D02*
X0002400Y0048484D01*
X0002400Y0047885D02*
X0393901Y0047885D01*
X0393901Y0047287D02*
X0002400Y0047287D01*
X0002400Y0046688D02*
X0393901Y0046688D01*
X0393901Y0046090D02*
X0002400Y0046090D01*
X0002400Y0045491D02*
X0393901Y0045491D01*
X0393901Y0044893D02*
X0002400Y0044893D01*
X0002400Y0044294D02*
X0393901Y0044294D01*
X0393901Y0043696D02*
X0002400Y0043696D01*
X0002400Y0043097D02*
X0393901Y0043097D01*
X0393901Y0042499D02*
X0002400Y0042499D01*
X0002400Y0041900D02*
X0393901Y0041900D01*
X0393901Y0041302D02*
X0002400Y0041302D01*
X0002400Y0040703D02*
X0393901Y0040703D01*
X0393901Y0040105D02*
X0002400Y0040105D01*
X0002400Y0039506D02*
X0393901Y0039506D01*
X0393901Y0038908D02*
X0002400Y0038908D01*
X0002400Y0038309D02*
X0393901Y0038309D01*
X0393901Y0037711D02*
X0002400Y0037711D01*
X0002400Y0037112D02*
X0393901Y0037112D01*
X0393901Y0036514D02*
X0317463Y0036514D01*
X0317255Y0036600D02*
X0319019Y0035869D01*
X0320369Y0034519D01*
X0321100Y0032755D01*
X0321100Y0030845D01*
X0320369Y0029081D01*
X0319019Y0027731D01*
X0317255Y0027000D01*
X0315345Y0027000D01*
X0313581Y0027731D01*
X0312231Y0029081D01*
X0311500Y0030845D01*
X0311500Y0032755D01*
X0312231Y0034519D01*
X0313581Y0035869D01*
X0315345Y0036600D01*
X0317255Y0036600D01*
X0318908Y0035915D02*
X0393901Y0035915D01*
X0393901Y0035317D02*
X0319572Y0035317D01*
X0320170Y0034718D02*
X0393901Y0034718D01*
X0393901Y0034120D02*
X0320535Y0034120D01*
X0320783Y0033521D02*
X0393901Y0033521D01*
X0393901Y0032923D02*
X0321030Y0032923D01*
X0321100Y0032324D02*
X0393901Y0032324D01*
X0393901Y0031726D02*
X0321100Y0031726D01*
X0321100Y0031127D02*
X0393901Y0031127D01*
X0393901Y0030529D02*
X0320969Y0030529D01*
X0320721Y0029930D02*
X0393901Y0029930D01*
X0393901Y0029332D02*
X0320473Y0029332D01*
X0320021Y0028733D02*
X0393901Y0028733D01*
X0393901Y0028134D02*
X0319423Y0028134D01*
X0318549Y0027536D02*
X0393901Y0027536D01*
X0393901Y0026937D02*
X0277515Y0026937D01*
X0277471Y0026923D02*
X0278219Y0027166D01*
X0278921Y0027524D01*
X0279557Y0027986D01*
X0280114Y0028543D01*
X0280576Y0029179D01*
X0280934Y0029881D01*
X0281177Y0030629D01*
X0281300Y0031406D01*
X0281300Y0031500D01*
X0276600Y0031500D01*
X0276600Y0032100D01*
X0276000Y0032100D01*
X0276000Y0036800D01*
X0275906Y0036800D01*
X0275129Y0036677D01*
X0274381Y0036434D01*
X0273679Y0036076D01*
X0273043Y0035614D01*
X0272486Y0035057D01*
X0272024Y0034421D01*
X0271666Y0033719D01*
X0271423Y0032971D01*
X0271300Y0032194D01*
X0271300Y0032100D01*
X0276000Y0032100D01*
X0276000Y0031500D01*
X0271300Y0031500D01*
X0271300Y0031406D01*
X0271423Y0030629D01*
X0271666Y0029881D01*
X0272024Y0029179D01*
X0272486Y0028543D01*
X0273043Y0027986D01*
X0273679Y0027524D01*
X0274381Y0027166D01*
X0275129Y0026923D01*
X0275906Y0026800D01*
X0276000Y0026800D01*
X0276000Y0031500D01*
X0276600Y0031500D01*
X0276600Y0026800D01*
X0276694Y0026800D01*
X0277471Y0026923D01*
X0276600Y0026937D02*
X0276000Y0026937D01*
X0276000Y0027536D02*
X0276600Y0027536D01*
X0276600Y0028134D02*
X0276000Y0028134D01*
X0276000Y0028733D02*
X0276600Y0028733D01*
X0276600Y0029332D02*
X0276000Y0029332D01*
X0276000Y0029930D02*
X0276600Y0029930D01*
X0276600Y0030529D02*
X0276000Y0030529D01*
X0276000Y0031127D02*
X0276600Y0031127D01*
X0276600Y0031726D02*
X0281500Y0031726D01*
X0281300Y0032100D02*
X0281300Y0032194D01*
X0281177Y0032971D01*
X0280934Y0033719D01*
X0280576Y0034421D01*
X0280114Y0035057D01*
X0279557Y0035614D01*
X0278921Y0036076D01*
X0278219Y0036434D01*
X0277471Y0036677D01*
X0276694Y0036800D01*
X0276600Y0036800D01*
X0276600Y0032100D01*
X0281300Y0032100D01*
X0281279Y0032324D02*
X0281500Y0032324D01*
X0281500Y0032755D02*
X0281500Y0030845D01*
X0282231Y0029081D01*
X0283581Y0027731D01*
X0285345Y0027000D01*
X0287255Y0027000D01*
X0289019Y0027731D01*
X0290369Y0029081D01*
X0291100Y0030845D01*
X0291100Y0032755D01*
X0290369Y0034519D01*
X0289019Y0035869D01*
X0287255Y0036600D01*
X0285345Y0036600D01*
X0283581Y0035869D01*
X0282231Y0034519D01*
X0281500Y0032755D01*
X0281570Y0032923D02*
X0281185Y0032923D01*
X0280998Y0033521D02*
X0281817Y0033521D01*
X0282065Y0034120D02*
X0280730Y0034120D01*
X0280360Y0034718D02*
X0282430Y0034718D01*
X0283028Y0035317D02*
X0279854Y0035317D01*
X0279142Y0035915D02*
X0283692Y0035915D01*
X0285137Y0036514D02*
X0277973Y0036514D01*
X0276600Y0036514D02*
X0276000Y0036514D01*
X0276000Y0035915D02*
X0276600Y0035915D01*
X0276600Y0035317D02*
X0276000Y0035317D01*
X0276000Y0034718D02*
X0276600Y0034718D01*
X0276600Y0034120D02*
X0276000Y0034120D01*
X0276000Y0033521D02*
X0276600Y0033521D01*
X0276600Y0032923D02*
X0276000Y0032923D01*
X0276000Y0032324D02*
X0276600Y0032324D01*
X0276000Y0031726D02*
X0271100Y0031726D01*
X0271100Y0032324D02*
X0271321Y0032324D01*
X0271100Y0032755D02*
X0270369Y0034519D01*
X0269019Y0035869D01*
X0267255Y0036600D01*
X0265345Y0036600D01*
X0263581Y0035869D01*
X0262231Y0034519D01*
X0261500Y0032755D01*
X0261500Y0030845D01*
X0262231Y0029081D01*
X0263581Y0027731D01*
X0265345Y0027000D01*
X0267255Y0027000D01*
X0269019Y0027731D01*
X0270369Y0029081D01*
X0271100Y0030845D01*
X0271100Y0032755D01*
X0271030Y0032923D02*
X0271415Y0032923D01*
X0271602Y0033521D02*
X0270783Y0033521D01*
X0270535Y0034120D02*
X0271870Y0034120D01*
X0272240Y0034718D02*
X0270170Y0034718D01*
X0269572Y0035317D02*
X0272746Y0035317D01*
X0273458Y0035915D02*
X0268908Y0035915D01*
X0267463Y0036514D02*
X0274627Y0036514D01*
X0271344Y0031127D02*
X0271100Y0031127D01*
X0270969Y0030529D02*
X0271456Y0030529D01*
X0271650Y0029930D02*
X0270721Y0029930D01*
X0270473Y0029332D02*
X0271946Y0029332D01*
X0272348Y0028733D02*
X0270021Y0028733D01*
X0269423Y0028134D02*
X0272894Y0028134D01*
X0273662Y0027536D02*
X0268549Y0027536D01*
X0264051Y0027536D02*
X0002400Y0027536D01*
X0002400Y0028134D02*
X0022577Y0028134D01*
X0022485Y0028227D02*
X0022727Y0027985D01*
X0023023Y0027814D01*
X0023354Y0027725D01*
X0026000Y0027725D01*
X0026000Y0031500D01*
X0026600Y0031500D01*
X0026600Y0032100D01*
X0030375Y0032100D01*
X0030375Y0034746D01*
X0030286Y0035077D01*
X0030115Y0035373D01*
X0029873Y0035615D01*
X0029577Y0035786D01*
X0029246Y0035875D01*
X0026600Y0035875D01*
X0026600Y0032100D01*
X0026000Y0032100D01*
X0026000Y0035875D01*
X0023354Y0035875D01*
X0023023Y0035786D01*
X0022727Y0035615D01*
X0022485Y0035373D01*
X0022314Y0035077D01*
X0022225Y0034746D01*
X0022225Y0032100D01*
X0026000Y0032100D01*
X0026000Y0031500D01*
X0022225Y0031500D01*
X0022225Y0028854D01*
X0022314Y0028523D01*
X0022485Y0028227D01*
X0022258Y0028733D02*
X0002400Y0028733D01*
X0002400Y0029332D02*
X0022225Y0029332D01*
X0022225Y0029930D02*
X0002400Y0029930D01*
X0002400Y0030529D02*
X0022225Y0030529D01*
X0022225Y0031127D02*
X0002400Y0031127D01*
X0002400Y0031726D02*
X0026000Y0031726D01*
X0026000Y0032324D02*
X0026600Y0032324D01*
X0026600Y0031726D02*
X0032425Y0031726D01*
X0032425Y0032324D02*
X0030375Y0032324D01*
X0030375Y0032923D02*
X0032425Y0032923D01*
X0032425Y0033405D02*
X0032425Y0030195D01*
X0034695Y0027925D01*
X0037905Y0027925D01*
X0040175Y0030195D01*
X0040175Y0033405D01*
X0037905Y0035675D01*
X0034695Y0035675D01*
X0032425Y0033405D01*
X0032541Y0033521D02*
X0030375Y0033521D01*
X0030375Y0034120D02*
X0033140Y0034120D01*
X0033738Y0034718D02*
X0030375Y0034718D01*
X0030148Y0035317D02*
X0034337Y0035317D01*
X0038263Y0035317D02*
X0044337Y0035317D01*
X0044695Y0035675D02*
X0042425Y0033405D01*
X0042425Y0030195D01*
X0044695Y0027925D01*
X0047905Y0027925D01*
X0050175Y0030195D01*
X0050175Y0033405D01*
X0047905Y0035675D01*
X0044695Y0035675D01*
X0043738Y0034718D02*
X0038862Y0034718D01*
X0039460Y0034120D02*
X0043140Y0034120D01*
X0042541Y0033521D02*
X0040059Y0033521D01*
X0040175Y0032923D02*
X0042425Y0032923D01*
X0042425Y0032324D02*
X0040175Y0032324D01*
X0040175Y0031726D02*
X0042425Y0031726D01*
X0042425Y0031127D02*
X0040175Y0031127D01*
X0040175Y0030529D02*
X0042425Y0030529D01*
X0042690Y0029930D02*
X0039910Y0029930D01*
X0039311Y0029332D02*
X0043289Y0029332D01*
X0043887Y0028733D02*
X0038713Y0028733D01*
X0038114Y0028134D02*
X0044486Y0028134D01*
X0048114Y0028134D02*
X0054486Y0028134D01*
X0054695Y0027925D02*
X0057905Y0027925D01*
X0060175Y0030195D01*
X0060175Y0033405D01*
X0057905Y0035675D01*
X0054695Y0035675D01*
X0052425Y0033405D01*
X0052425Y0030195D01*
X0054695Y0027925D01*
X0053887Y0028733D02*
X0048713Y0028733D01*
X0049311Y0029332D02*
X0053289Y0029332D01*
X0052690Y0029930D02*
X0049910Y0029930D01*
X0050175Y0030529D02*
X0052425Y0030529D01*
X0052425Y0031127D02*
X0050175Y0031127D01*
X0050175Y0031726D02*
X0052425Y0031726D01*
X0052425Y0032324D02*
X0050175Y0032324D01*
X0050175Y0032923D02*
X0052425Y0032923D01*
X0052541Y0033521D02*
X0050059Y0033521D01*
X0049460Y0034120D02*
X0053140Y0034120D01*
X0053738Y0034718D02*
X0048862Y0034718D01*
X0048263Y0035317D02*
X0054337Y0035317D01*
X0058263Y0035317D02*
X0064337Y0035317D01*
X0064695Y0035675D02*
X0062425Y0033405D01*
X0062425Y0030195D01*
X0064695Y0027925D01*
X0067905Y0027925D01*
X0070175Y0030195D01*
X0070175Y0033405D01*
X0067905Y0035675D01*
X0064695Y0035675D01*
X0063738Y0034718D02*
X0058862Y0034718D01*
X0059460Y0034120D02*
X0063140Y0034120D01*
X0062541Y0033521D02*
X0060059Y0033521D01*
X0060175Y0032923D02*
X0062425Y0032923D01*
X0062425Y0032324D02*
X0060175Y0032324D01*
X0060175Y0031726D02*
X0062425Y0031726D01*
X0062425Y0031127D02*
X0060175Y0031127D01*
X0060175Y0030529D02*
X0062425Y0030529D01*
X0062690Y0029930D02*
X0059910Y0029930D01*
X0059311Y0029332D02*
X0063289Y0029332D01*
X0063887Y0028733D02*
X0058713Y0028733D01*
X0058114Y0028134D02*
X0064486Y0028134D01*
X0068114Y0028134D02*
X0074486Y0028134D01*
X0074695Y0027925D02*
X0077905Y0027925D01*
X0080175Y0030195D01*
X0080175Y0033405D01*
X0077905Y0035675D01*
X0074695Y0035675D01*
X0072425Y0033405D01*
X0072425Y0030195D01*
X0074695Y0027925D01*
X0073887Y0028733D02*
X0068713Y0028733D01*
X0069311Y0029332D02*
X0073289Y0029332D01*
X0072690Y0029930D02*
X0069910Y0029930D01*
X0070175Y0030529D02*
X0072425Y0030529D01*
X0072425Y0031127D02*
X0070175Y0031127D01*
X0070175Y0031726D02*
X0072425Y0031726D01*
X0072425Y0032324D02*
X0070175Y0032324D01*
X0070175Y0032923D02*
X0072425Y0032923D01*
X0072541Y0033521D02*
X0070059Y0033521D01*
X0069460Y0034120D02*
X0073140Y0034120D01*
X0073738Y0034718D02*
X0068862Y0034718D01*
X0068263Y0035317D02*
X0074337Y0035317D01*
X0078263Y0035317D02*
X0084337Y0035317D01*
X0084695Y0035675D02*
X0082425Y0033405D01*
X0082425Y0030195D01*
X0084695Y0027925D01*
X0087905Y0027925D01*
X0090175Y0030195D01*
X0090175Y0033405D01*
X0087905Y0035675D01*
X0084695Y0035675D01*
X0083738Y0034718D02*
X0078862Y0034718D01*
X0079460Y0034120D02*
X0083140Y0034120D01*
X0082541Y0033521D02*
X0080059Y0033521D01*
X0080175Y0032923D02*
X0082425Y0032923D01*
X0082425Y0032324D02*
X0080175Y0032324D01*
X0080175Y0031726D02*
X0082425Y0031726D01*
X0082425Y0031127D02*
X0080175Y0031127D01*
X0080175Y0030529D02*
X0082425Y0030529D01*
X0082690Y0029930D02*
X0079910Y0029930D01*
X0079311Y0029332D02*
X0083289Y0029332D01*
X0083887Y0028733D02*
X0078713Y0028733D01*
X0078114Y0028134D02*
X0084486Y0028134D01*
X0088114Y0028134D02*
X0094486Y0028134D01*
X0094695Y0027925D02*
X0097905Y0027925D01*
X0100175Y0030195D01*
X0100175Y0033405D01*
X0097905Y0035675D01*
X0094695Y0035675D01*
X0092425Y0033405D01*
X0092425Y0030195D01*
X0094695Y0027925D01*
X0093887Y0028733D02*
X0088713Y0028733D01*
X0089311Y0029332D02*
X0093289Y0029332D01*
X0092690Y0029930D02*
X0089910Y0029930D01*
X0090175Y0030529D02*
X0092425Y0030529D01*
X0092425Y0031127D02*
X0090175Y0031127D01*
X0090175Y0031726D02*
X0092425Y0031726D01*
X0092425Y0032324D02*
X0090175Y0032324D01*
X0090175Y0032923D02*
X0092425Y0032923D01*
X0092541Y0033521D02*
X0090059Y0033521D01*
X0089460Y0034120D02*
X0093140Y0034120D01*
X0093738Y0034718D02*
X0088862Y0034718D01*
X0088263Y0035317D02*
X0094337Y0035317D01*
X0098263Y0035317D02*
X0104337Y0035317D01*
X0104695Y0035675D02*
X0102425Y0033405D01*
X0102425Y0030195D01*
X0104695Y0027925D01*
X0107905Y0027925D01*
X0110175Y0030195D01*
X0110175Y0033405D01*
X0107905Y0035675D01*
X0104695Y0035675D01*
X0103738Y0034718D02*
X0098862Y0034718D01*
X0099460Y0034120D02*
X0103140Y0034120D01*
X0102541Y0033521D02*
X0100059Y0033521D01*
X0100175Y0032923D02*
X0102425Y0032923D01*
X0102425Y0032324D02*
X0100175Y0032324D01*
X0100175Y0031726D02*
X0102425Y0031726D01*
X0102425Y0031127D02*
X0100175Y0031127D01*
X0100175Y0030529D02*
X0102425Y0030529D01*
X0102690Y0029930D02*
X0099910Y0029930D01*
X0099311Y0029332D02*
X0103289Y0029332D01*
X0103887Y0028733D02*
X0098713Y0028733D01*
X0098114Y0028134D02*
X0104486Y0028134D01*
X0108114Y0028134D02*
X0114486Y0028134D01*
X0114695Y0027925D02*
X0117905Y0027925D01*
X0120175Y0030195D01*
X0120175Y0033405D01*
X0117905Y0035675D01*
X0114695Y0035675D01*
X0112425Y0033405D01*
X0112425Y0030195D01*
X0114695Y0027925D01*
X0113887Y0028733D02*
X0108713Y0028733D01*
X0109311Y0029332D02*
X0113289Y0029332D01*
X0112690Y0029930D02*
X0109910Y0029930D01*
X0110175Y0030529D02*
X0112425Y0030529D01*
X0112425Y0031127D02*
X0110175Y0031127D01*
X0110175Y0031726D02*
X0112425Y0031726D01*
X0112425Y0032324D02*
X0110175Y0032324D01*
X0110175Y0032923D02*
X0112425Y0032923D01*
X0112541Y0033521D02*
X0110059Y0033521D01*
X0109460Y0034120D02*
X0113140Y0034120D01*
X0113738Y0034718D02*
X0108862Y0034718D01*
X0108263Y0035317D02*
X0114337Y0035317D01*
X0118263Y0035317D02*
X0124337Y0035317D01*
X0124695Y0035675D02*
X0122425Y0033405D01*
X0122425Y0030195D01*
X0124695Y0027925D01*
X0127905Y0027925D01*
X0130175Y0030195D01*
X0130175Y0033405D01*
X0127905Y0035675D01*
X0124695Y0035675D01*
X0123738Y0034718D02*
X0118862Y0034718D01*
X0119460Y0034120D02*
X0123140Y0034120D01*
X0122541Y0033521D02*
X0120059Y0033521D01*
X0120175Y0032923D02*
X0122425Y0032923D01*
X0122425Y0032324D02*
X0120175Y0032324D01*
X0120175Y0031726D02*
X0122425Y0031726D01*
X0122425Y0031127D02*
X0120175Y0031127D01*
X0120175Y0030529D02*
X0122425Y0030529D01*
X0122690Y0029930D02*
X0119910Y0029930D01*
X0119311Y0029332D02*
X0123289Y0029332D01*
X0123887Y0028733D02*
X0118713Y0028733D01*
X0118114Y0028134D02*
X0124486Y0028134D01*
X0128114Y0028134D02*
X0134486Y0028134D01*
X0134695Y0027925D02*
X0137905Y0027925D01*
X0140175Y0030195D01*
X0140175Y0033405D01*
X0137905Y0035675D01*
X0134695Y0035675D01*
X0132425Y0033405D01*
X0132425Y0030195D01*
X0134695Y0027925D01*
X0133887Y0028733D02*
X0128713Y0028733D01*
X0129311Y0029332D02*
X0133289Y0029332D01*
X0132690Y0029930D02*
X0129910Y0029930D01*
X0130175Y0030529D02*
X0132425Y0030529D01*
X0132425Y0031127D02*
X0130175Y0031127D01*
X0130175Y0031726D02*
X0132425Y0031726D01*
X0132425Y0032324D02*
X0130175Y0032324D01*
X0130175Y0032923D02*
X0132425Y0032923D01*
X0132541Y0033521D02*
X0130059Y0033521D01*
X0129460Y0034120D02*
X0133140Y0034120D01*
X0133738Y0034718D02*
X0128862Y0034718D01*
X0128263Y0035317D02*
X0134337Y0035317D01*
X0138263Y0035317D02*
X0144337Y0035317D01*
X0144695Y0035675D02*
X0142425Y0033405D01*
X0142425Y0030195D01*
X0144695Y0027925D01*
X0147905Y0027925D01*
X0150175Y0030195D01*
X0150175Y0033405D01*
X0147905Y0035675D01*
X0144695Y0035675D01*
X0143738Y0034718D02*
X0138862Y0034718D01*
X0139460Y0034120D02*
X0143140Y0034120D01*
X0142541Y0033521D02*
X0140059Y0033521D01*
X0140175Y0032923D02*
X0142425Y0032923D01*
X0142425Y0032324D02*
X0140175Y0032324D01*
X0140175Y0031726D02*
X0142425Y0031726D01*
X0142425Y0031127D02*
X0140175Y0031127D01*
X0140175Y0030529D02*
X0142425Y0030529D01*
X0142690Y0029930D02*
X0139910Y0029930D01*
X0139311Y0029332D02*
X0143289Y0029332D01*
X0143887Y0028733D02*
X0138713Y0028733D01*
X0138114Y0028134D02*
X0144486Y0028134D01*
X0148114Y0028134D02*
X0154486Y0028134D01*
X0154695Y0027925D02*
X0152425Y0030195D01*
X0152425Y0033405D01*
X0154695Y0035675D01*
X0157905Y0035675D01*
X0160175Y0033405D01*
X0160175Y0030195D01*
X0157905Y0027925D01*
X0154695Y0027925D01*
X0153887Y0028733D02*
X0148713Y0028733D01*
X0149311Y0029332D02*
X0153289Y0029332D01*
X0152690Y0029930D02*
X0149910Y0029930D01*
X0150175Y0030529D02*
X0152425Y0030529D01*
X0152425Y0031127D02*
X0150175Y0031127D01*
X0150175Y0031726D02*
X0152425Y0031726D01*
X0152425Y0032324D02*
X0150175Y0032324D01*
X0150175Y0032923D02*
X0152425Y0032923D01*
X0152541Y0033521D02*
X0150059Y0033521D01*
X0149460Y0034120D02*
X0153140Y0034120D01*
X0153738Y0034718D02*
X0148862Y0034718D01*
X0148263Y0035317D02*
X0154337Y0035317D01*
X0158263Y0035317D02*
X0164337Y0035317D01*
X0164695Y0035675D02*
X0162425Y0033405D01*
X0162425Y0030195D01*
X0164695Y0027925D01*
X0167905Y0027925D01*
X0170175Y0030195D01*
X0170175Y0033405D01*
X0167905Y0035675D01*
X0164695Y0035675D01*
X0163738Y0034718D02*
X0158862Y0034718D01*
X0159460Y0034120D02*
X0163140Y0034120D01*
X0162541Y0033521D02*
X0160059Y0033521D01*
X0160175Y0032923D02*
X0162425Y0032923D01*
X0162425Y0032324D02*
X0160175Y0032324D01*
X0160175Y0031726D02*
X0162425Y0031726D01*
X0162425Y0031127D02*
X0160175Y0031127D01*
X0160175Y0030529D02*
X0162425Y0030529D01*
X0162690Y0029930D02*
X0159910Y0029930D01*
X0159311Y0029332D02*
X0163289Y0029332D01*
X0163887Y0028733D02*
X0158713Y0028733D01*
X0158114Y0028134D02*
X0164486Y0028134D01*
X0168114Y0028134D02*
X0174486Y0028134D01*
X0174695Y0027925D02*
X0172425Y0030195D01*
X0172425Y0033405D01*
X0174695Y0035675D01*
X0177905Y0035675D01*
X0180175Y0033405D01*
X0180175Y0030195D01*
X0177905Y0027925D01*
X0174695Y0027925D01*
X0173887Y0028733D02*
X0168713Y0028733D01*
X0169311Y0029332D02*
X0173289Y0029332D01*
X0172690Y0029930D02*
X0169910Y0029930D01*
X0170175Y0030529D02*
X0172425Y0030529D01*
X0172425Y0031127D02*
X0170175Y0031127D01*
X0170175Y0031726D02*
X0172425Y0031726D01*
X0172425Y0032324D02*
X0170175Y0032324D01*
X0170175Y0032923D02*
X0172425Y0032923D01*
X0172541Y0033521D02*
X0170059Y0033521D01*
X0169460Y0034120D02*
X0173140Y0034120D01*
X0173738Y0034718D02*
X0168862Y0034718D01*
X0168263Y0035317D02*
X0174337Y0035317D01*
X0178263Y0035317D02*
X0184337Y0035317D01*
X0184695Y0035675D02*
X0182425Y0033405D01*
X0182425Y0030195D01*
X0184695Y0027925D01*
X0187905Y0027925D01*
X0190175Y0030195D01*
X0190175Y0033405D01*
X0187905Y0035675D01*
X0184695Y0035675D01*
X0183738Y0034718D02*
X0178862Y0034718D01*
X0179460Y0034120D02*
X0183140Y0034120D01*
X0182541Y0033521D02*
X0180059Y0033521D01*
X0180175Y0032923D02*
X0182425Y0032923D01*
X0182425Y0032324D02*
X0180175Y0032324D01*
X0180175Y0031726D02*
X0182425Y0031726D01*
X0182425Y0031127D02*
X0180175Y0031127D01*
X0180175Y0030529D02*
X0182425Y0030529D01*
X0182690Y0029930D02*
X0179910Y0029930D01*
X0179311Y0029332D02*
X0183289Y0029332D01*
X0183887Y0028733D02*
X0178713Y0028733D01*
X0178114Y0028134D02*
X0184486Y0028134D01*
X0188114Y0028134D02*
X0194486Y0028134D01*
X0194695Y0027925D02*
X0197905Y0027925D01*
X0200175Y0030195D01*
X0200175Y0033405D01*
X0197905Y0035675D01*
X0194695Y0035675D01*
X0192425Y0033405D01*
X0192425Y0030195D01*
X0194695Y0027925D01*
X0193887Y0028733D02*
X0188713Y0028733D01*
X0189311Y0029332D02*
X0193289Y0029332D01*
X0192690Y0029930D02*
X0189910Y0029930D01*
X0190175Y0030529D02*
X0192425Y0030529D01*
X0192425Y0031127D02*
X0190175Y0031127D01*
X0190175Y0031726D02*
X0192425Y0031726D01*
X0192425Y0032324D02*
X0190175Y0032324D01*
X0190175Y0032923D02*
X0192425Y0032923D01*
X0192541Y0033521D02*
X0190059Y0033521D01*
X0189460Y0034120D02*
X0193140Y0034120D01*
X0193738Y0034718D02*
X0188862Y0034718D01*
X0188263Y0035317D02*
X0194337Y0035317D01*
X0198263Y0035317D02*
X0263028Y0035317D01*
X0262430Y0034718D02*
X0198862Y0034718D01*
X0199460Y0034120D02*
X0262065Y0034120D01*
X0261817Y0033521D02*
X0200059Y0033521D01*
X0200175Y0032923D02*
X0261570Y0032923D01*
X0261500Y0032324D02*
X0200175Y0032324D01*
X0200175Y0031726D02*
X0261500Y0031726D01*
X0261500Y0031127D02*
X0200175Y0031127D01*
X0200175Y0030529D02*
X0261631Y0030529D01*
X0261879Y0029930D02*
X0199910Y0029930D01*
X0199311Y0029332D02*
X0262127Y0029332D01*
X0262579Y0028733D02*
X0198713Y0028733D01*
X0198114Y0028134D02*
X0263177Y0028134D01*
X0275085Y0026937D02*
X0002400Y0026937D01*
X0002400Y0026339D02*
X0393901Y0026339D01*
X0393901Y0025740D02*
X0002400Y0025740D01*
X0002400Y0025142D02*
X0393901Y0025142D01*
X0393901Y0024543D02*
X0002400Y0024543D01*
X0002400Y0023945D02*
X0393901Y0023945D01*
X0393901Y0023346D02*
X0002400Y0023346D01*
X0002400Y0022748D02*
X0393901Y0022748D01*
X0393901Y0022149D02*
X0002400Y0022149D01*
X0002400Y0021551D02*
X0025227Y0021551D01*
X0025345Y0021600D02*
X0023581Y0020869D01*
X0022231Y0019519D01*
X0021500Y0017755D01*
X0021500Y0015845D01*
X0022231Y0014081D01*
X0023581Y0012731D01*
X0025345Y0012000D01*
X0027255Y0012000D01*
X0029019Y0012731D01*
X0030369Y0014081D01*
X0031100Y0015845D01*
X0031100Y0017755D01*
X0030369Y0019519D01*
X0029019Y0020869D01*
X0027255Y0021600D01*
X0025345Y0021600D01*
X0023782Y0020952D02*
X0002400Y0020952D01*
X0002400Y0020354D02*
X0023066Y0020354D01*
X0022467Y0019755D02*
X0002400Y0019755D01*
X0002400Y0019157D02*
X0022081Y0019157D01*
X0021833Y0018558D02*
X0002400Y0018558D01*
X0002400Y0017960D02*
X0021585Y0017960D01*
X0021500Y0017361D02*
X0002400Y0017361D01*
X0002400Y0016763D02*
X0021500Y0016763D01*
X0021500Y0016164D02*
X0002400Y0016164D01*
X0002400Y0015566D02*
X0021616Y0015566D01*
X0021864Y0014967D02*
X0002400Y0014967D01*
X0002400Y0014369D02*
X0022112Y0014369D01*
X0022542Y0013770D02*
X0002400Y0013770D01*
X0002400Y0013172D02*
X0023140Y0013172D01*
X0023961Y0012573D02*
X0002400Y0012573D01*
X0002400Y0011975D02*
X0064970Y0011975D01*
X0065129Y0011923D02*
X0065906Y0011800D01*
X0066000Y0011800D01*
X0066000Y0016500D01*
X0061300Y0016500D01*
X0061300Y0016406D01*
X0061423Y0015629D01*
X0061666Y0014881D01*
X0062024Y0014179D01*
X0062486Y0013543D01*
X0063043Y0012986D01*
X0063679Y0012524D01*
X0064381Y0012166D01*
X0065129Y0011923D01*
X0066000Y0011975D02*
X0066600Y0011975D01*
X0066600Y0011800D02*
X0066694Y0011800D01*
X0067471Y0011923D01*
X0068219Y0012166D01*
X0068921Y0012524D01*
X0069557Y0012986D01*
X0070114Y0013543D01*
X0070576Y0014179D01*
X0070934Y0014881D01*
X0071177Y0015629D01*
X0071300Y0016406D01*
X0071300Y0016500D01*
X0066600Y0016500D01*
X0066600Y0017100D01*
X0066000Y0017100D01*
X0066000Y0021800D01*
X0065906Y0021800D01*
X0065129Y0021677D01*
X0064381Y0021434D01*
X0063679Y0021076D01*
X0063043Y0020614D01*
X0062486Y0020057D01*
X0062024Y0019421D01*
X0061666Y0018719D01*
X0061423Y0017971D01*
X0061300Y0017194D01*
X0061300Y0017100D01*
X0066000Y0017100D01*
X0066000Y0016500D01*
X0066600Y0016500D01*
X0066600Y0011800D01*
X0066600Y0012573D02*
X0066000Y0012573D01*
X0066000Y0013172D02*
X0066600Y0013172D01*
X0066600Y0013770D02*
X0066000Y0013770D01*
X0066000Y0014369D02*
X0066600Y0014369D01*
X0066600Y0014967D02*
X0066000Y0014967D01*
X0066000Y0015566D02*
X0066600Y0015566D01*
X0066600Y0016164D02*
X0066000Y0016164D01*
X0066000Y0016763D02*
X0061100Y0016763D01*
X0061100Y0017361D02*
X0061327Y0017361D01*
X0061100Y0017755D02*
X0061100Y0015845D01*
X0060369Y0014081D01*
X0059019Y0012731D01*
X0057255Y0012000D01*
X0055345Y0012000D01*
X0053581Y0012731D01*
X0052231Y0014081D01*
X0051500Y0015845D01*
X0051500Y0017755D01*
X0052231Y0019519D01*
X0053581Y0020869D01*
X0055345Y0021600D01*
X0057255Y0021600D01*
X0059019Y0020869D01*
X0060369Y0019519D01*
X0061100Y0017755D01*
X0061015Y0017960D02*
X0061421Y0017960D01*
X0061614Y0018558D02*
X0060767Y0018558D01*
X0060519Y0019157D02*
X0061889Y0019157D01*
X0062267Y0019755D02*
X0060133Y0019755D01*
X0059534Y0020354D02*
X0062783Y0020354D01*
X0063509Y0020952D02*
X0058818Y0020952D01*
X0057373Y0021551D02*
X0064741Y0021551D01*
X0066000Y0021551D02*
X0066600Y0021551D01*
X0066600Y0021800D02*
X0066600Y0017100D01*
X0071300Y0017100D01*
X0071300Y0017194D01*
X0071177Y0017971D01*
X0070934Y0018719D01*
X0070576Y0019421D01*
X0070114Y0020057D01*
X0069557Y0020614D01*
X0068921Y0021076D01*
X0068219Y0021434D01*
X0067471Y0021677D01*
X0066694Y0021800D01*
X0066600Y0021800D01*
X0066600Y0020952D02*
X0066000Y0020952D01*
X0066000Y0020354D02*
X0066600Y0020354D01*
X0066600Y0019755D02*
X0066000Y0019755D01*
X0066000Y0019157D02*
X0066600Y0019157D01*
X0066600Y0018558D02*
X0066000Y0018558D01*
X0066000Y0017960D02*
X0066600Y0017960D01*
X0066600Y0017361D02*
X0066000Y0017361D01*
X0066600Y0016763D02*
X0071500Y0016763D01*
X0071500Y0017361D02*
X0071273Y0017361D01*
X0071500Y0017755D02*
X0071500Y0015845D01*
X0072231Y0014081D01*
X0073581Y0012731D01*
X0075345Y0012000D01*
X0077255Y0012000D01*
X0079019Y0012731D01*
X0080369Y0014081D01*
X0081100Y0015845D01*
X0081100Y0017755D01*
X0080369Y0019519D01*
X0079019Y0020869D01*
X0077255Y0021600D01*
X0075345Y0021600D01*
X0073581Y0020869D01*
X0072231Y0019519D01*
X0071500Y0017755D01*
X0071585Y0017960D02*
X0071179Y0017960D01*
X0070986Y0018558D02*
X0071833Y0018558D01*
X0072081Y0019157D02*
X0070711Y0019157D01*
X0070333Y0019755D02*
X0072467Y0019755D01*
X0073066Y0020354D02*
X0069817Y0020354D01*
X0069091Y0020952D02*
X0073782Y0020952D01*
X0075227Y0021551D02*
X0067859Y0021551D01*
X0077373Y0021551D02*
X0085227Y0021551D01*
X0085345Y0021600D02*
X0083581Y0020869D01*
X0082231Y0019519D01*
X0081500Y0017755D01*
X0081500Y0015845D01*
X0082231Y0014081D01*
X0083581Y0012731D01*
X0085345Y0012000D01*
X0087255Y0012000D01*
X0089019Y0012731D01*
X0090369Y0014081D01*
X0091100Y0015845D01*
X0091100Y0017755D01*
X0090369Y0019519D01*
X0089019Y0020869D01*
X0087255Y0021600D01*
X0085345Y0021600D01*
X0083782Y0020952D02*
X0078818Y0020952D01*
X0079534Y0020354D02*
X0083066Y0020354D01*
X0082467Y0019755D02*
X0080133Y0019755D01*
X0080519Y0019157D02*
X0082081Y0019157D01*
X0081833Y0018558D02*
X0080767Y0018558D01*
X0081015Y0017960D02*
X0081585Y0017960D01*
X0081500Y0017361D02*
X0081100Y0017361D01*
X0081100Y0016763D02*
X0081500Y0016763D01*
X0081500Y0016164D02*
X0081100Y0016164D01*
X0080984Y0015566D02*
X0081616Y0015566D01*
X0081864Y0014967D02*
X0080736Y0014967D01*
X0080488Y0014369D02*
X0082112Y0014369D01*
X0082542Y0013770D02*
X0080058Y0013770D01*
X0079460Y0013172D02*
X0083140Y0013172D01*
X0083961Y0012573D02*
X0078639Y0012573D01*
X0073961Y0012573D02*
X0068989Y0012573D01*
X0069743Y0013172D02*
X0073140Y0013172D01*
X0072542Y0013770D02*
X0070279Y0013770D01*
X0070673Y0014369D02*
X0072112Y0014369D01*
X0071864Y0014967D02*
X0070962Y0014967D01*
X0071156Y0015566D02*
X0071616Y0015566D01*
X0071500Y0016164D02*
X0071262Y0016164D01*
X0062857Y0013172D02*
X0059460Y0013172D01*
X0060058Y0013770D02*
X0062321Y0013770D01*
X0061927Y0014369D02*
X0060488Y0014369D01*
X0060736Y0014967D02*
X0061638Y0014967D01*
X0061444Y0015566D02*
X0060984Y0015566D01*
X0061100Y0016164D02*
X0061338Y0016164D01*
X0053140Y0013172D02*
X0049460Y0013172D01*
X0049019Y0012731D02*
X0050369Y0014081D01*
X0051100Y0015845D01*
X0051100Y0017755D01*
X0050369Y0019519D01*
X0049019Y0020869D01*
X0047255Y0021600D01*
X0045345Y0021600D01*
X0043581Y0020869D01*
X0042231Y0019519D01*
X0041500Y0017755D01*
X0041500Y0015845D01*
X0042231Y0014081D01*
X0043581Y0012731D01*
X0045345Y0012000D01*
X0047255Y0012000D01*
X0049019Y0012731D01*
X0048639Y0012573D02*
X0053961Y0012573D01*
X0052542Y0013770D02*
X0050058Y0013770D01*
X0050488Y0014369D02*
X0052112Y0014369D01*
X0051864Y0014967D02*
X0050736Y0014967D01*
X0050984Y0015566D02*
X0051616Y0015566D01*
X0051500Y0016164D02*
X0051100Y0016164D01*
X0051100Y0016763D02*
X0051500Y0016763D01*
X0051500Y0017361D02*
X0051100Y0017361D01*
X0051015Y0017960D02*
X0051585Y0017960D01*
X0051833Y0018558D02*
X0050767Y0018558D01*
X0050519Y0019157D02*
X0052081Y0019157D01*
X0052467Y0019755D02*
X0050133Y0019755D01*
X0049534Y0020354D02*
X0053066Y0020354D01*
X0053782Y0020952D02*
X0048818Y0020952D01*
X0047373Y0021551D02*
X0055227Y0021551D01*
X0045227Y0021551D02*
X0037373Y0021551D01*
X0037255Y0021600D02*
X0035345Y0021600D01*
X0033581Y0020869D01*
X0032231Y0019519D01*
X0031500Y0017755D01*
X0031500Y0015845D01*
X0032231Y0014081D01*
X0033581Y0012731D01*
X0035345Y0012000D01*
X0037255Y0012000D01*
X0039019Y0012731D01*
X0040369Y0014081D01*
X0041100Y0015845D01*
X0041100Y0017755D01*
X0040369Y0019519D01*
X0039019Y0020869D01*
X0037255Y0021600D01*
X0038818Y0020952D02*
X0043782Y0020952D01*
X0043066Y0020354D02*
X0039534Y0020354D01*
X0040133Y0019755D02*
X0042467Y0019755D01*
X0042081Y0019157D02*
X0040519Y0019157D01*
X0040767Y0018558D02*
X0041833Y0018558D01*
X0041585Y0017960D02*
X0041015Y0017960D01*
X0041100Y0017361D02*
X0041500Y0017361D01*
X0041500Y0016763D02*
X0041100Y0016763D01*
X0041100Y0016164D02*
X0041500Y0016164D01*
X0041616Y0015566D02*
X0040984Y0015566D01*
X0040736Y0014967D02*
X0041864Y0014967D01*
X0042112Y0014369D02*
X0040488Y0014369D01*
X0040058Y0013770D02*
X0042542Y0013770D01*
X0043140Y0013172D02*
X0039460Y0013172D01*
X0038639Y0012573D02*
X0043961Y0012573D01*
X0033961Y0012573D02*
X0028639Y0012573D01*
X0029460Y0013172D02*
X0033140Y0013172D01*
X0032542Y0013770D02*
X0030058Y0013770D01*
X0030488Y0014369D02*
X0032112Y0014369D01*
X0031864Y0014967D02*
X0030736Y0014967D01*
X0030984Y0015566D02*
X0031616Y0015566D01*
X0031500Y0016164D02*
X0031100Y0016164D01*
X0031100Y0016763D02*
X0031500Y0016763D01*
X0031500Y0017361D02*
X0031100Y0017361D01*
X0031015Y0017960D02*
X0031585Y0017960D01*
X0031833Y0018558D02*
X0030767Y0018558D01*
X0030519Y0019157D02*
X0032081Y0019157D01*
X0032467Y0019755D02*
X0030133Y0019755D01*
X0029534Y0020354D02*
X0033066Y0020354D01*
X0033782Y0020952D02*
X0028818Y0020952D01*
X0027373Y0021551D02*
X0035227Y0021551D01*
X0034486Y0028134D02*
X0030023Y0028134D01*
X0030115Y0028227D02*
X0030286Y0028523D01*
X0030375Y0028854D01*
X0030375Y0031500D01*
X0026600Y0031500D01*
X0026600Y0027725D01*
X0029246Y0027725D01*
X0029577Y0027814D01*
X0029873Y0027985D01*
X0030115Y0028227D01*
X0030342Y0028733D02*
X0033887Y0028733D01*
X0033289Y0029332D02*
X0030375Y0029332D01*
X0030375Y0029930D02*
X0032690Y0029930D01*
X0032425Y0030529D02*
X0030375Y0030529D01*
X0030375Y0031127D02*
X0032425Y0031127D01*
X0026600Y0031127D02*
X0026000Y0031127D01*
X0026000Y0030529D02*
X0026600Y0030529D01*
X0026600Y0029930D02*
X0026000Y0029930D01*
X0026000Y0029332D02*
X0026600Y0029332D01*
X0026600Y0028733D02*
X0026000Y0028733D01*
X0026000Y0028134D02*
X0026600Y0028134D01*
X0026600Y0032923D02*
X0026000Y0032923D01*
X0026000Y0033521D02*
X0026600Y0033521D01*
X0026600Y0034120D02*
X0026000Y0034120D01*
X0026000Y0034718D02*
X0026600Y0034718D01*
X0026600Y0035317D02*
X0026000Y0035317D01*
X0022452Y0035317D02*
X0002400Y0035317D01*
X0002400Y0035915D02*
X0263692Y0035915D01*
X0265137Y0036514D02*
X0002400Y0036514D01*
X0002400Y0034718D02*
X0022225Y0034718D01*
X0022225Y0034120D02*
X0002400Y0034120D01*
X0002400Y0033521D02*
X0022225Y0033521D01*
X0022225Y0032923D02*
X0002400Y0032923D01*
X0002400Y0032324D02*
X0022225Y0032324D01*
X0002400Y0011376D02*
X0393901Y0011376D01*
X0393901Y0010778D02*
X0002400Y0010778D01*
X0002400Y0010179D02*
X0393901Y0010179D01*
X0393901Y0009581D02*
X0002400Y0009581D01*
X0002400Y0008982D02*
X0393901Y0008982D01*
X0393901Y0008384D02*
X0002400Y0008384D01*
X0002400Y0007785D02*
X0393901Y0007785D01*
X0393901Y0007187D02*
X0002400Y0007187D01*
X0002400Y0006588D02*
X0393901Y0006588D01*
X0393901Y0005990D02*
X0002400Y0005990D01*
X0002400Y0005391D02*
X0393901Y0005391D01*
X0393901Y0004793D02*
X0002400Y0004793D01*
X0002400Y0004194D02*
X0393901Y0004194D01*
X0393901Y0003596D02*
X0002400Y0003596D01*
X0002400Y0002997D02*
X0393901Y0002997D01*
X0393901Y0011975D02*
X0167630Y0011975D01*
X0167471Y0011923D02*
X0168219Y0012166D01*
X0168921Y0012524D01*
X0169557Y0012986D01*
X0170114Y0013543D01*
X0170576Y0014179D01*
X0170934Y0014881D01*
X0171177Y0015629D01*
X0171300Y0016406D01*
X0171300Y0016500D01*
X0166600Y0016500D01*
X0166600Y0017100D01*
X0166000Y0017100D01*
X0166000Y0021800D01*
X0165906Y0021800D01*
X0165129Y0021677D01*
X0164381Y0021434D01*
X0163679Y0021076D01*
X0163043Y0020614D01*
X0162486Y0020057D01*
X0162024Y0019421D01*
X0161666Y0018719D01*
X0161423Y0017971D01*
X0161300Y0017194D01*
X0161300Y0017100D01*
X0166000Y0017100D01*
X0166000Y0016500D01*
X0161300Y0016500D01*
X0161300Y0016406D01*
X0161423Y0015629D01*
X0161666Y0014881D01*
X0162024Y0014179D01*
X0162486Y0013543D01*
X0163043Y0012986D01*
X0163679Y0012524D01*
X0164381Y0012166D01*
X0165129Y0011923D01*
X0165906Y0011800D01*
X0166000Y0011800D01*
X0166000Y0016500D01*
X0166600Y0016500D01*
X0166600Y0011800D01*
X0166694Y0011800D01*
X0167471Y0011923D01*
X0166600Y0011975D02*
X0166000Y0011975D01*
X0166000Y0012573D02*
X0166600Y0012573D01*
X0166600Y0013172D02*
X0166000Y0013172D01*
X0166000Y0013770D02*
X0166600Y0013770D01*
X0166600Y0014369D02*
X0166000Y0014369D01*
X0166000Y0014967D02*
X0166600Y0014967D01*
X0166600Y0015566D02*
X0166000Y0015566D01*
X0166000Y0016164D02*
X0166600Y0016164D01*
X0166600Y0016763D02*
X0171500Y0016763D01*
X0171300Y0017100D02*
X0171300Y0017194D01*
X0171177Y0017971D01*
X0170934Y0018719D01*
X0170576Y0019421D01*
X0170114Y0020057D01*
X0169557Y0020614D01*
X0168921Y0021076D01*
X0168219Y0021434D01*
X0167471Y0021677D01*
X0166694Y0021800D01*
X0166600Y0021800D01*
X0166600Y0017100D01*
X0171300Y0017100D01*
X0171273Y0017361D02*
X0171500Y0017361D01*
X0171500Y0017755D02*
X0171500Y0015845D01*
X0172231Y0014081D01*
X0173581Y0012731D01*
X0175345Y0012000D01*
X0177255Y0012000D01*
X0179019Y0012731D01*
X0180369Y0014081D01*
X0181100Y0015845D01*
X0181100Y0017755D01*
X0180369Y0019519D01*
X0179019Y0020869D01*
X0177255Y0021600D01*
X0175345Y0021600D01*
X0173581Y0020869D01*
X0172231Y0019519D01*
X0171500Y0017755D01*
X0171585Y0017960D02*
X0171179Y0017960D01*
X0170986Y0018558D02*
X0171833Y0018558D01*
X0172081Y0019157D02*
X0170711Y0019157D01*
X0170333Y0019755D02*
X0172467Y0019755D01*
X0173066Y0020354D02*
X0169817Y0020354D01*
X0169091Y0020952D02*
X0173782Y0020952D01*
X0175227Y0021551D02*
X0167859Y0021551D01*
X0166600Y0021551D02*
X0166000Y0021551D01*
X0166000Y0020952D02*
X0166600Y0020952D01*
X0166600Y0020354D02*
X0166000Y0020354D01*
X0166000Y0019755D02*
X0166600Y0019755D01*
X0166600Y0019157D02*
X0166000Y0019157D01*
X0166000Y0018558D02*
X0166600Y0018558D01*
X0166600Y0017960D02*
X0166000Y0017960D01*
X0166000Y0017361D02*
X0166600Y0017361D01*
X0166000Y0016763D02*
X0161100Y0016763D01*
X0161100Y0017361D02*
X0161327Y0017361D01*
X0161100Y0017755D02*
X0161100Y0015845D01*
X0160369Y0014081D01*
X0159019Y0012731D01*
X0157255Y0012000D01*
X0155345Y0012000D01*
X0153581Y0012731D01*
X0152231Y0014081D01*
X0151500Y0015845D01*
X0151500Y0017755D01*
X0152231Y0019519D01*
X0153581Y0020869D01*
X0155345Y0021600D01*
X0157255Y0021600D01*
X0159019Y0020869D01*
X0160369Y0019519D01*
X0161100Y0017755D01*
X0161015Y0017960D02*
X0161421Y0017960D01*
X0161614Y0018558D02*
X0160767Y0018558D01*
X0160519Y0019157D02*
X0161889Y0019157D01*
X0162267Y0019755D02*
X0160133Y0019755D01*
X0159534Y0020354D02*
X0162783Y0020354D01*
X0163509Y0020952D02*
X0158818Y0020952D01*
X0157373Y0021551D02*
X0164741Y0021551D01*
X0155227Y0021551D02*
X0147373Y0021551D01*
X0147255Y0021600D02*
X0145345Y0021600D01*
X0143581Y0020869D01*
X0142231Y0019519D01*
X0141500Y0017755D01*
X0141500Y0015845D01*
X0142231Y0014081D01*
X0143581Y0012731D01*
X0145345Y0012000D01*
X0147255Y0012000D01*
X0149019Y0012731D01*
X0150369Y0014081D01*
X0151100Y0015845D01*
X0151100Y0017755D01*
X0150369Y0019519D01*
X0149019Y0020869D01*
X0147255Y0021600D01*
X0148818Y0020952D02*
X0153782Y0020952D01*
X0153066Y0020354D02*
X0149534Y0020354D01*
X0150133Y0019755D02*
X0152467Y0019755D01*
X0152081Y0019157D02*
X0150519Y0019157D01*
X0150767Y0018558D02*
X0151833Y0018558D01*
X0151585Y0017960D02*
X0151015Y0017960D01*
X0151100Y0017361D02*
X0151500Y0017361D01*
X0151500Y0016763D02*
X0151100Y0016763D01*
X0151100Y0016164D02*
X0151500Y0016164D01*
X0151616Y0015566D02*
X0150984Y0015566D01*
X0150736Y0014967D02*
X0151864Y0014967D01*
X0152112Y0014369D02*
X0150488Y0014369D01*
X0150058Y0013770D02*
X0152542Y0013770D01*
X0153140Y0013172D02*
X0149460Y0013172D01*
X0148639Y0012573D02*
X0153961Y0012573D01*
X0158639Y0012573D02*
X0163611Y0012573D01*
X0162857Y0013172D02*
X0159460Y0013172D01*
X0160058Y0013770D02*
X0162321Y0013770D01*
X0161927Y0014369D02*
X0160488Y0014369D01*
X0160736Y0014967D02*
X0161638Y0014967D01*
X0161444Y0015566D02*
X0160984Y0015566D01*
X0161100Y0016164D02*
X0161338Y0016164D01*
X0169743Y0013172D02*
X0173140Y0013172D01*
X0172542Y0013770D02*
X0170279Y0013770D01*
X0170673Y0014369D02*
X0172112Y0014369D01*
X0171864Y0014967D02*
X0170962Y0014967D01*
X0171156Y0015566D02*
X0171616Y0015566D01*
X0171500Y0016164D02*
X0171262Y0016164D01*
X0179460Y0013172D02*
X0183140Y0013172D01*
X0183581Y0012731D02*
X0185345Y0012000D01*
X0187255Y0012000D01*
X0189019Y0012731D01*
X0190369Y0014081D01*
X0191100Y0015845D01*
X0191100Y0017755D01*
X0190369Y0019519D01*
X0189019Y0020869D01*
X0187255Y0021600D01*
X0185345Y0021600D01*
X0183581Y0020869D01*
X0182231Y0019519D01*
X0181500Y0017755D01*
X0181500Y0015845D01*
X0182231Y0014081D01*
X0183581Y0012731D01*
X0183961Y0012573D02*
X0178639Y0012573D01*
X0180058Y0013770D02*
X0182542Y0013770D01*
X0182112Y0014369D02*
X0180488Y0014369D01*
X0180736Y0014967D02*
X0181864Y0014967D01*
X0181616Y0015566D02*
X0180984Y0015566D01*
X0181100Y0016164D02*
X0181500Y0016164D01*
X0181500Y0016763D02*
X0181100Y0016763D01*
X0181100Y0017361D02*
X0181500Y0017361D01*
X0181585Y0017960D02*
X0181015Y0017960D01*
X0180767Y0018558D02*
X0181833Y0018558D01*
X0182081Y0019157D02*
X0180519Y0019157D01*
X0180133Y0019755D02*
X0182467Y0019755D01*
X0183066Y0020354D02*
X0179534Y0020354D01*
X0178818Y0020952D02*
X0183782Y0020952D01*
X0185227Y0021551D02*
X0177373Y0021551D01*
X0187373Y0021551D02*
X0195227Y0021551D01*
X0195345Y0021600D02*
X0193581Y0020869D01*
X0192231Y0019519D01*
X0191500Y0017755D01*
X0191500Y0015845D01*
X0192231Y0014081D01*
X0193581Y0012731D01*
X0195345Y0012000D01*
X0197255Y0012000D01*
X0199019Y0012731D01*
X0200369Y0014081D01*
X0201100Y0015845D01*
X0201100Y0017755D01*
X0200369Y0019519D01*
X0199019Y0020869D01*
X0197255Y0021600D01*
X0195345Y0021600D01*
X0193782Y0020952D02*
X0188818Y0020952D01*
X0189534Y0020354D02*
X0193066Y0020354D01*
X0192467Y0019755D02*
X0190133Y0019755D01*
X0190519Y0019157D02*
X0192081Y0019157D01*
X0191833Y0018558D02*
X0190767Y0018558D01*
X0191015Y0017960D02*
X0191585Y0017960D01*
X0191500Y0017361D02*
X0191100Y0017361D01*
X0191100Y0016763D02*
X0191500Y0016763D01*
X0191500Y0016164D02*
X0191100Y0016164D01*
X0190984Y0015566D02*
X0191616Y0015566D01*
X0191864Y0014967D02*
X0190736Y0014967D01*
X0190488Y0014369D02*
X0192112Y0014369D01*
X0192542Y0013770D02*
X0190058Y0013770D01*
X0189460Y0013172D02*
X0193140Y0013172D01*
X0193961Y0012573D02*
X0188639Y0012573D01*
X0198639Y0012573D02*
X0393901Y0012573D01*
X0393901Y0013172D02*
X0199460Y0013172D01*
X0200058Y0013770D02*
X0393901Y0013770D01*
X0393901Y0014369D02*
X0200488Y0014369D01*
X0200736Y0014967D02*
X0393901Y0014967D01*
X0393901Y0015566D02*
X0200984Y0015566D01*
X0201100Y0016164D02*
X0393901Y0016164D01*
X0393901Y0016763D02*
X0201100Y0016763D01*
X0201100Y0017361D02*
X0393901Y0017361D01*
X0393901Y0017960D02*
X0201015Y0017960D01*
X0200767Y0018558D02*
X0393901Y0018558D01*
X0393901Y0019157D02*
X0200519Y0019157D01*
X0200133Y0019755D02*
X0393901Y0019755D01*
X0393901Y0020354D02*
X0199534Y0020354D01*
X0198818Y0020952D02*
X0393901Y0020952D01*
X0393901Y0021551D02*
X0197373Y0021551D01*
X0173961Y0012573D02*
X0168989Y0012573D01*
X0164970Y0011975D02*
X0067630Y0011975D01*
X0063611Y0012573D02*
X0058639Y0012573D01*
X0088639Y0012573D02*
X0093961Y0012573D01*
X0093581Y0012731D02*
X0095345Y0012000D01*
X0097255Y0012000D01*
X0099019Y0012731D01*
X0100369Y0014081D01*
X0101100Y0015845D01*
X0101100Y0017755D01*
X0100369Y0019519D01*
X0099019Y0020869D01*
X0097255Y0021600D01*
X0095345Y0021600D01*
X0093581Y0020869D01*
X0092231Y0019519D01*
X0091500Y0017755D01*
X0091500Y0015845D01*
X0092231Y0014081D01*
X0093581Y0012731D01*
X0093140Y0013172D02*
X0089460Y0013172D01*
X0090058Y0013770D02*
X0092542Y0013770D01*
X0092112Y0014369D02*
X0090488Y0014369D01*
X0090736Y0014967D02*
X0091864Y0014967D01*
X0091616Y0015566D02*
X0090984Y0015566D01*
X0091100Y0016164D02*
X0091500Y0016164D01*
X0091500Y0016763D02*
X0091100Y0016763D01*
X0091100Y0017361D02*
X0091500Y0017361D01*
X0091585Y0017960D02*
X0091015Y0017960D01*
X0090767Y0018558D02*
X0091833Y0018558D01*
X0092081Y0019157D02*
X0090519Y0019157D01*
X0090133Y0019755D02*
X0092467Y0019755D01*
X0093066Y0020354D02*
X0089534Y0020354D01*
X0088818Y0020952D02*
X0093782Y0020952D01*
X0095227Y0021551D02*
X0087373Y0021551D01*
X0097373Y0021551D02*
X0105227Y0021551D01*
X0105345Y0021600D02*
X0103581Y0020869D01*
X0102231Y0019519D01*
X0101500Y0017755D01*
X0101500Y0015845D01*
X0102231Y0014081D01*
X0103581Y0012731D01*
X0105345Y0012000D01*
X0107255Y0012000D01*
X0109019Y0012731D01*
X0110369Y0014081D01*
X0111100Y0015845D01*
X0111100Y0017755D01*
X0110369Y0019519D01*
X0109019Y0020869D01*
X0107255Y0021600D01*
X0105345Y0021600D01*
X0103782Y0020952D02*
X0098818Y0020952D01*
X0099534Y0020354D02*
X0103066Y0020354D01*
X0102467Y0019755D02*
X0100133Y0019755D01*
X0100519Y0019157D02*
X0102081Y0019157D01*
X0101833Y0018558D02*
X0100767Y0018558D01*
X0101015Y0017960D02*
X0101585Y0017960D01*
X0101500Y0017361D02*
X0101100Y0017361D01*
X0101100Y0016763D02*
X0101500Y0016763D01*
X0101500Y0016164D02*
X0101100Y0016164D01*
X0100984Y0015566D02*
X0101616Y0015566D01*
X0101864Y0014967D02*
X0100736Y0014967D01*
X0100488Y0014369D02*
X0102112Y0014369D01*
X0102542Y0013770D02*
X0100058Y0013770D01*
X0099460Y0013172D02*
X0103140Y0013172D01*
X0103961Y0012573D02*
X0098639Y0012573D01*
X0108639Y0012573D02*
X0113961Y0012573D01*
X0113581Y0012731D02*
X0115345Y0012000D01*
X0117255Y0012000D01*
X0119019Y0012731D01*
X0120369Y0014081D01*
X0121100Y0015845D01*
X0121100Y0017755D01*
X0120369Y0019519D01*
X0119019Y0020869D01*
X0117255Y0021600D01*
X0115345Y0021600D01*
X0113581Y0020869D01*
X0112231Y0019519D01*
X0111500Y0017755D01*
X0111500Y0015845D01*
X0112231Y0014081D01*
X0113581Y0012731D01*
X0113140Y0013172D02*
X0109460Y0013172D01*
X0110058Y0013770D02*
X0112542Y0013770D01*
X0112112Y0014369D02*
X0110488Y0014369D01*
X0110736Y0014967D02*
X0111864Y0014967D01*
X0111616Y0015566D02*
X0110984Y0015566D01*
X0111100Y0016164D02*
X0111500Y0016164D01*
X0111500Y0016763D02*
X0111100Y0016763D01*
X0111100Y0017361D02*
X0111500Y0017361D01*
X0111585Y0017960D02*
X0111015Y0017960D01*
X0110767Y0018558D02*
X0111833Y0018558D01*
X0112081Y0019157D02*
X0110519Y0019157D01*
X0110133Y0019755D02*
X0112467Y0019755D01*
X0113066Y0020354D02*
X0109534Y0020354D01*
X0108818Y0020952D02*
X0113782Y0020952D01*
X0115227Y0021551D02*
X0107373Y0021551D01*
X0117373Y0021551D02*
X0125227Y0021551D01*
X0125345Y0021600D02*
X0123581Y0020869D01*
X0122231Y0019519D01*
X0121500Y0017755D01*
X0121500Y0015845D01*
X0122231Y0014081D01*
X0123581Y0012731D01*
X0125345Y0012000D01*
X0127255Y0012000D01*
X0129019Y0012731D01*
X0130369Y0014081D01*
X0131100Y0015845D01*
X0131100Y0017755D01*
X0130369Y0019519D01*
X0129019Y0020869D01*
X0127255Y0021600D01*
X0125345Y0021600D01*
X0123782Y0020952D02*
X0118818Y0020952D01*
X0119534Y0020354D02*
X0123066Y0020354D01*
X0122467Y0019755D02*
X0120133Y0019755D01*
X0120519Y0019157D02*
X0122081Y0019157D01*
X0121833Y0018558D02*
X0120767Y0018558D01*
X0121015Y0017960D02*
X0121585Y0017960D01*
X0121500Y0017361D02*
X0121100Y0017361D01*
X0121100Y0016763D02*
X0121500Y0016763D01*
X0121500Y0016164D02*
X0121100Y0016164D01*
X0120984Y0015566D02*
X0121616Y0015566D01*
X0121864Y0014967D02*
X0120736Y0014967D01*
X0120488Y0014369D02*
X0122112Y0014369D01*
X0122542Y0013770D02*
X0120058Y0013770D01*
X0119460Y0013172D02*
X0123140Y0013172D01*
X0123961Y0012573D02*
X0118639Y0012573D01*
X0128639Y0012573D02*
X0133961Y0012573D01*
X0133581Y0012731D02*
X0135345Y0012000D01*
X0137255Y0012000D01*
X0139019Y0012731D01*
X0140369Y0014081D01*
X0141100Y0015845D01*
X0141100Y0017755D01*
X0140369Y0019519D01*
X0139019Y0020869D01*
X0137255Y0021600D01*
X0135345Y0021600D01*
X0133581Y0020869D01*
X0132231Y0019519D01*
X0131500Y0017755D01*
X0131500Y0015845D01*
X0132231Y0014081D01*
X0133581Y0012731D01*
X0133140Y0013172D02*
X0129460Y0013172D01*
X0130058Y0013770D02*
X0132542Y0013770D01*
X0132112Y0014369D02*
X0130488Y0014369D01*
X0130736Y0014967D02*
X0131864Y0014967D01*
X0131616Y0015566D02*
X0130984Y0015566D01*
X0131100Y0016164D02*
X0131500Y0016164D01*
X0131500Y0016763D02*
X0131100Y0016763D01*
X0131100Y0017361D02*
X0131500Y0017361D01*
X0131585Y0017960D02*
X0131015Y0017960D01*
X0130767Y0018558D02*
X0131833Y0018558D01*
X0132081Y0019157D02*
X0130519Y0019157D01*
X0130133Y0019755D02*
X0132467Y0019755D01*
X0133066Y0020354D02*
X0129534Y0020354D01*
X0128818Y0020952D02*
X0133782Y0020952D01*
X0135227Y0021551D02*
X0127373Y0021551D01*
X0137373Y0021551D02*
X0145227Y0021551D01*
X0143782Y0020952D02*
X0138818Y0020952D01*
X0139534Y0020354D02*
X0143066Y0020354D01*
X0142467Y0019755D02*
X0140133Y0019755D01*
X0140519Y0019157D02*
X0142081Y0019157D01*
X0141833Y0018558D02*
X0140767Y0018558D01*
X0141015Y0017960D02*
X0141585Y0017960D01*
X0141500Y0017361D02*
X0141100Y0017361D01*
X0141100Y0016763D02*
X0141500Y0016763D01*
X0141500Y0016164D02*
X0141100Y0016164D01*
X0140984Y0015566D02*
X0141616Y0015566D01*
X0141864Y0014967D02*
X0140736Y0014967D01*
X0140488Y0014369D02*
X0142112Y0014369D01*
X0142542Y0013770D02*
X0140058Y0013770D01*
X0139460Y0013172D02*
X0143140Y0013172D01*
X0143961Y0012573D02*
X0138639Y0012573D01*
X0278938Y0027536D02*
X0284051Y0027536D01*
X0283177Y0028134D02*
X0279706Y0028134D01*
X0280252Y0028733D02*
X0282579Y0028733D01*
X0282127Y0029332D02*
X0280654Y0029332D01*
X0280950Y0029930D02*
X0281879Y0029930D01*
X0281631Y0030529D02*
X0281144Y0030529D01*
X0281256Y0031127D02*
X0281500Y0031127D01*
X0288549Y0027536D02*
X0294051Y0027536D01*
X0293581Y0027731D02*
X0295345Y0027000D01*
X0297255Y0027000D01*
X0299019Y0027731D01*
X0300369Y0029081D01*
X0301100Y0030845D01*
X0301100Y0032755D01*
X0300369Y0034519D01*
X0299019Y0035869D01*
X0297255Y0036600D01*
X0295345Y0036600D01*
X0293581Y0035869D01*
X0292231Y0034519D01*
X0291500Y0032755D01*
X0291500Y0030845D01*
X0292231Y0029081D01*
X0293581Y0027731D01*
X0293177Y0028134D02*
X0289423Y0028134D01*
X0290021Y0028733D02*
X0292579Y0028733D01*
X0292127Y0029332D02*
X0290473Y0029332D01*
X0290721Y0029930D02*
X0291879Y0029930D01*
X0291631Y0030529D02*
X0290969Y0030529D01*
X0291100Y0031127D02*
X0291500Y0031127D01*
X0291500Y0031726D02*
X0291100Y0031726D01*
X0291100Y0032324D02*
X0291500Y0032324D01*
X0291570Y0032923D02*
X0291030Y0032923D01*
X0290783Y0033521D02*
X0291817Y0033521D01*
X0292065Y0034120D02*
X0290535Y0034120D01*
X0290170Y0034718D02*
X0292430Y0034718D01*
X0293028Y0035317D02*
X0289572Y0035317D01*
X0288908Y0035915D02*
X0293692Y0035915D01*
X0295137Y0036514D02*
X0287463Y0036514D01*
X0297463Y0036514D02*
X0305137Y0036514D01*
X0305345Y0036600D02*
X0303581Y0035869D01*
X0302231Y0034519D01*
X0301500Y0032755D01*
X0301500Y0030845D01*
X0302231Y0029081D01*
X0303581Y0027731D01*
X0305345Y0027000D01*
X0307255Y0027000D01*
X0309019Y0027731D01*
X0310369Y0029081D01*
X0311100Y0030845D01*
X0311100Y0032755D01*
X0310369Y0034519D01*
X0309019Y0035869D01*
X0307255Y0036600D01*
X0305345Y0036600D01*
X0303692Y0035915D02*
X0298908Y0035915D01*
X0299572Y0035317D02*
X0303028Y0035317D01*
X0302430Y0034718D02*
X0300170Y0034718D01*
X0300535Y0034120D02*
X0302065Y0034120D01*
X0301817Y0033521D02*
X0300783Y0033521D01*
X0301030Y0032923D02*
X0301570Y0032923D01*
X0301500Y0032324D02*
X0301100Y0032324D01*
X0301100Y0031726D02*
X0301500Y0031726D01*
X0301500Y0031127D02*
X0301100Y0031127D01*
X0300969Y0030529D02*
X0301631Y0030529D01*
X0301879Y0029930D02*
X0300721Y0029930D01*
X0300473Y0029332D02*
X0302127Y0029332D01*
X0302579Y0028733D02*
X0300021Y0028733D01*
X0299423Y0028134D02*
X0303177Y0028134D01*
X0304051Y0027536D02*
X0298549Y0027536D01*
X0308549Y0027536D02*
X0314051Y0027536D01*
X0313177Y0028134D02*
X0309423Y0028134D01*
X0310021Y0028733D02*
X0312579Y0028733D01*
X0312127Y0029332D02*
X0310473Y0029332D01*
X0310721Y0029930D02*
X0311879Y0029930D01*
X0311631Y0030529D02*
X0310969Y0030529D01*
X0311100Y0031127D02*
X0311500Y0031127D01*
X0311500Y0031726D02*
X0311100Y0031726D01*
X0311100Y0032324D02*
X0311500Y0032324D01*
X0311570Y0032923D02*
X0311030Y0032923D01*
X0310783Y0033521D02*
X0311817Y0033521D01*
X0312065Y0034120D02*
X0310535Y0034120D01*
X0310170Y0034718D02*
X0312430Y0034718D01*
X0313028Y0035317D02*
X0309572Y0035317D01*
X0308908Y0035915D02*
X0313692Y0035915D01*
X0315137Y0036514D02*
X0307463Y0036514D01*
X0307255Y0077000D02*
X0305345Y0077000D01*
X0303581Y0077731D01*
X0302231Y0079081D01*
X0301500Y0080845D01*
X0301500Y0082755D01*
X0302231Y0084519D01*
X0303581Y0085869D01*
X0305345Y0086600D01*
X0307255Y0086600D01*
X0309019Y0085869D01*
X0310369Y0084519D01*
X0311100Y0082755D01*
X0311100Y0080845D01*
X0310369Y0079081D01*
X0309019Y0077731D01*
X0307255Y0077000D01*
X0307768Y0077212D02*
X0314832Y0077212D01*
X0315345Y0077000D02*
X0313581Y0077731D01*
X0312231Y0079081D01*
X0311500Y0080845D01*
X0311500Y0082755D01*
X0312231Y0084519D01*
X0313581Y0085869D01*
X0315345Y0086600D01*
X0317255Y0086600D01*
X0319019Y0085869D01*
X0320369Y0084519D01*
X0321100Y0082755D01*
X0321100Y0080845D01*
X0320369Y0079081D01*
X0319019Y0077731D01*
X0317255Y0077000D01*
X0315345Y0077000D01*
X0313501Y0077811D02*
X0309099Y0077811D01*
X0309698Y0078409D02*
X0312902Y0078409D01*
X0312304Y0079008D02*
X0310296Y0079008D01*
X0310587Y0079606D02*
X0312013Y0079606D01*
X0311765Y0080205D02*
X0310835Y0080205D01*
X0311083Y0080803D02*
X0311517Y0080803D01*
X0311500Y0081402D02*
X0311100Y0081402D01*
X0311100Y0082001D02*
X0311500Y0082001D01*
X0311500Y0082599D02*
X0311100Y0082599D01*
X0310917Y0083198D02*
X0311683Y0083198D01*
X0311931Y0083796D02*
X0310669Y0083796D01*
X0310421Y0084395D02*
X0312179Y0084395D01*
X0312705Y0084993D02*
X0309895Y0084993D01*
X0309297Y0085592D02*
X0313303Y0085592D01*
X0314356Y0086190D02*
X0308244Y0086190D01*
X0304356Y0086190D02*
X0298697Y0086190D01*
X0299579Y0085592D02*
X0303303Y0085592D01*
X0302705Y0084993D02*
X0300160Y0084993D01*
X0300590Y0084395D02*
X0302179Y0084395D01*
X0301931Y0083796D02*
X0300895Y0083796D01*
X0301103Y0083198D02*
X0301683Y0083198D01*
X0301500Y0082599D02*
X0301236Y0082599D01*
X0301500Y0082001D02*
X0296600Y0082001D01*
X0296600Y0081500D02*
X0301300Y0081500D01*
X0301300Y0081406D01*
X0301177Y0080629D01*
X0300934Y0079881D01*
X0300576Y0079179D01*
X0300114Y0078543D01*
X0299557Y0077986D01*
X0298921Y0077524D01*
X0298219Y0077166D01*
X0297471Y0076923D01*
X0296694Y0076800D01*
X0296600Y0076800D01*
X0296600Y0081500D01*
X0296600Y0081402D02*
X0296000Y0081402D01*
X0296000Y0080803D02*
X0296600Y0080803D01*
X0296600Y0080205D02*
X0296000Y0080205D01*
X0296000Y0079606D02*
X0296600Y0079606D01*
X0296600Y0079008D02*
X0296000Y0079008D01*
X0296000Y0078409D02*
X0296600Y0078409D01*
X0296600Y0077811D02*
X0296000Y0077811D01*
X0296000Y0077212D02*
X0296600Y0077212D01*
X0298310Y0077212D02*
X0304832Y0077212D01*
X0303501Y0077811D02*
X0299316Y0077811D01*
X0299981Y0078409D02*
X0302902Y0078409D01*
X0302304Y0079008D02*
X0300452Y0079008D01*
X0300794Y0079606D02*
X0302013Y0079606D01*
X0301765Y0080205D02*
X0301039Y0080205D01*
X0301204Y0080803D02*
X0301517Y0080803D01*
X0301500Y0081402D02*
X0301299Y0081402D01*
X0296600Y0082599D02*
X0296000Y0082599D01*
X0296000Y0082001D02*
X0291100Y0082001D01*
X0291100Y0082599D02*
X0291364Y0082599D01*
X0291100Y0082755D02*
X0290369Y0084519D01*
X0289019Y0085869D01*
X0287255Y0086600D01*
X0285345Y0086600D01*
X0283581Y0085869D01*
X0282231Y0084519D01*
X0281500Y0082755D01*
X0281500Y0080845D01*
X0282231Y0079081D01*
X0283581Y0077731D01*
X0285345Y0077000D01*
X0287255Y0077000D01*
X0289019Y0077731D01*
X0290369Y0079081D01*
X0291100Y0080845D01*
X0291100Y0082755D01*
X0290917Y0083198D02*
X0291497Y0083198D01*
X0291705Y0083796D02*
X0290669Y0083796D01*
X0290421Y0084395D02*
X0292010Y0084395D01*
X0292440Y0084993D02*
X0289895Y0084993D01*
X0289297Y0085592D02*
X0293021Y0085592D01*
X0293903Y0086190D02*
X0288244Y0086190D01*
X0284356Y0086190D02*
X0278244Y0086190D01*
X0279019Y0085869D02*
X0277255Y0086600D01*
X0275345Y0086600D01*
X0273581Y0085869D01*
X0272231Y0084519D01*
X0271500Y0082755D01*
X0271500Y0080845D01*
X0272231Y0079081D01*
X0273581Y0077731D01*
X0275345Y0077000D01*
X0277255Y0077000D01*
X0279019Y0077731D01*
X0280369Y0079081D01*
X0281100Y0080845D01*
X0281100Y0082755D01*
X0280369Y0084519D01*
X0279019Y0085869D01*
X0279297Y0085592D02*
X0283303Y0085592D01*
X0282705Y0084993D02*
X0279895Y0084993D01*
X0280421Y0084395D02*
X0282179Y0084395D01*
X0281931Y0083796D02*
X0280669Y0083796D01*
X0280917Y0083198D02*
X0281683Y0083198D01*
X0281500Y0082599D02*
X0281100Y0082599D01*
X0281100Y0082001D02*
X0281500Y0082001D01*
X0281500Y0081402D02*
X0281100Y0081402D01*
X0281083Y0080803D02*
X0281517Y0080803D01*
X0281765Y0080205D02*
X0280835Y0080205D01*
X0280587Y0079606D02*
X0282013Y0079606D01*
X0282304Y0079008D02*
X0280296Y0079008D01*
X0279698Y0078409D02*
X0282902Y0078409D01*
X0283501Y0077811D02*
X0279099Y0077811D01*
X0277768Y0077212D02*
X0284832Y0077212D01*
X0287768Y0077212D02*
X0294290Y0077212D01*
X0293284Y0077811D02*
X0289099Y0077811D01*
X0289698Y0078409D02*
X0292619Y0078409D01*
X0292148Y0079008D02*
X0290296Y0079008D01*
X0290587Y0079606D02*
X0291806Y0079606D01*
X0291561Y0080205D02*
X0290835Y0080205D01*
X0291083Y0080803D02*
X0291395Y0080803D01*
X0291301Y0081402D02*
X0291100Y0081402D01*
X0296000Y0083198D02*
X0296600Y0083198D01*
X0296600Y0083796D02*
X0296000Y0083796D01*
X0296000Y0084395D02*
X0296600Y0084395D01*
X0296600Y0084993D02*
X0296000Y0084993D01*
X0296000Y0085592D02*
X0296600Y0085592D01*
X0296600Y0086190D02*
X0296000Y0086190D01*
X0274356Y0086190D02*
X0268244Y0086190D01*
X0269297Y0085592D02*
X0273303Y0085592D01*
X0272705Y0084993D02*
X0269895Y0084993D01*
X0270421Y0084395D02*
X0272179Y0084395D01*
X0271931Y0083796D02*
X0270669Y0083796D01*
X0270917Y0083198D02*
X0271683Y0083198D01*
X0271500Y0082599D02*
X0271100Y0082599D01*
X0271100Y0082001D02*
X0271500Y0082001D01*
X0271500Y0081402D02*
X0271100Y0081402D01*
X0271083Y0080803D02*
X0271517Y0080803D01*
X0271765Y0080205D02*
X0270835Y0080205D01*
X0270587Y0079606D02*
X0272013Y0079606D01*
X0272304Y0079008D02*
X0270296Y0079008D01*
X0269698Y0078409D02*
X0272902Y0078409D01*
X0273501Y0077811D02*
X0269099Y0077811D01*
X0267768Y0077212D02*
X0274832Y0077212D01*
X0317768Y0077212D02*
X0324832Y0077212D01*
X0323501Y0077811D02*
X0319099Y0077811D01*
X0319698Y0078409D02*
X0322902Y0078409D01*
X0322304Y0079008D02*
X0320296Y0079008D01*
X0320587Y0079606D02*
X0322013Y0079606D01*
X0321765Y0080205D02*
X0320835Y0080205D01*
X0321083Y0080803D02*
X0321517Y0080803D01*
X0321500Y0081402D02*
X0321100Y0081402D01*
X0321100Y0082001D02*
X0321500Y0082001D01*
X0321500Y0082599D02*
X0321100Y0082599D01*
X0320917Y0083198D02*
X0321683Y0083198D01*
X0321931Y0083796D02*
X0320669Y0083796D01*
X0320421Y0084395D02*
X0322179Y0084395D01*
X0322705Y0084993D02*
X0319895Y0084993D01*
X0319297Y0085592D02*
X0323303Y0085592D01*
X0324356Y0086190D02*
X0318244Y0086190D01*
X0393901Y0137064D02*
X0197408Y0137064D01*
X0197255Y0137000D02*
X0199019Y0137731D01*
X0200369Y0139081D01*
X0201100Y0140845D01*
X0201100Y0142755D01*
X0200369Y0144519D01*
X0199019Y0145869D01*
X0197255Y0146600D01*
X0195345Y0146600D01*
X0193581Y0145869D01*
X0192231Y0144519D01*
X0191500Y0142755D01*
X0191500Y0140845D01*
X0192231Y0139081D01*
X0193581Y0137731D01*
X0195345Y0137000D01*
X0197255Y0137000D01*
X0198853Y0137662D02*
X0393901Y0137662D01*
X0393901Y0138261D02*
X0199549Y0138261D01*
X0200147Y0138859D02*
X0393901Y0138859D01*
X0393901Y0139458D02*
X0200525Y0139458D01*
X0200773Y0140056D02*
X0393901Y0140056D01*
X0393901Y0140655D02*
X0201021Y0140655D01*
X0201100Y0141253D02*
X0393901Y0141253D01*
X0393901Y0141852D02*
X0201100Y0141852D01*
X0201100Y0142450D02*
X0393901Y0142450D01*
X0393901Y0143049D02*
X0200978Y0143049D01*
X0200730Y0143647D02*
X0393901Y0143647D01*
X0393901Y0144246D02*
X0200482Y0144246D01*
X0200044Y0144844D02*
X0393901Y0144844D01*
X0393901Y0145443D02*
X0199445Y0145443D01*
X0198604Y0146041D02*
X0393901Y0146041D01*
X0195192Y0137064D02*
X0187408Y0137064D01*
X0187255Y0137000D02*
X0189019Y0137731D01*
X0190369Y0139081D01*
X0191100Y0140845D01*
X0191100Y0142755D01*
X0190369Y0144519D01*
X0189019Y0145869D01*
X0187255Y0146600D01*
X0185345Y0146600D01*
X0183581Y0145869D01*
X0182231Y0144519D01*
X0181500Y0142755D01*
X0181500Y0140845D01*
X0182231Y0139081D01*
X0183581Y0137731D01*
X0185345Y0137000D01*
X0187255Y0137000D01*
X0188853Y0137662D02*
X0193747Y0137662D01*
X0193051Y0138261D02*
X0189549Y0138261D01*
X0190147Y0138859D02*
X0192453Y0138859D01*
X0192075Y0139458D02*
X0190525Y0139458D01*
X0190773Y0140056D02*
X0191827Y0140056D01*
X0191579Y0140655D02*
X0191021Y0140655D01*
X0191100Y0141253D02*
X0191500Y0141253D01*
X0191500Y0141852D02*
X0191100Y0141852D01*
X0191100Y0142450D02*
X0191500Y0142450D01*
X0191622Y0143049D02*
X0190978Y0143049D01*
X0190730Y0143647D02*
X0191870Y0143647D01*
X0192118Y0144246D02*
X0190482Y0144246D01*
X0190044Y0144844D02*
X0192556Y0144844D01*
X0193155Y0145443D02*
X0189445Y0145443D01*
X0188604Y0146041D02*
X0193996Y0146041D01*
X0183996Y0146041D02*
X0178604Y0146041D01*
X0179019Y0145869D02*
X0177255Y0146600D01*
X0175345Y0146600D01*
X0173581Y0145869D01*
X0172231Y0144519D01*
X0171500Y0142755D01*
X0171500Y0140845D01*
X0172231Y0139081D01*
X0173581Y0137731D01*
X0175345Y0137000D01*
X0177255Y0137000D01*
X0179019Y0137731D01*
X0180369Y0139081D01*
X0181100Y0140845D01*
X0181100Y0142755D01*
X0180369Y0144519D01*
X0179019Y0145869D01*
X0179445Y0145443D02*
X0183155Y0145443D01*
X0182556Y0144844D02*
X0180044Y0144844D01*
X0180482Y0144246D02*
X0182118Y0144246D01*
X0181870Y0143647D02*
X0180730Y0143647D01*
X0180978Y0143049D02*
X0181622Y0143049D01*
X0181500Y0142450D02*
X0181100Y0142450D01*
X0181100Y0141852D02*
X0181500Y0141852D01*
X0181500Y0141253D02*
X0181100Y0141253D01*
X0181021Y0140655D02*
X0181579Y0140655D01*
X0181827Y0140056D02*
X0180773Y0140056D01*
X0180525Y0139458D02*
X0182075Y0139458D01*
X0182453Y0138859D02*
X0180147Y0138859D01*
X0179549Y0138261D02*
X0183051Y0138261D01*
X0183747Y0137662D02*
X0178853Y0137662D01*
X0177408Y0137064D02*
X0185192Y0137064D01*
X0175192Y0137064D02*
X0167408Y0137064D01*
X0167255Y0137000D02*
X0169019Y0137731D01*
X0170369Y0139081D01*
X0171100Y0140845D01*
X0171100Y0142755D01*
X0170369Y0144519D01*
X0169019Y0145869D01*
X0167255Y0146600D01*
X0165345Y0146600D01*
X0163581Y0145869D01*
X0162231Y0144519D01*
X0161500Y0142755D01*
X0161500Y0140845D01*
X0162231Y0139081D01*
X0163581Y0137731D01*
X0165345Y0137000D01*
X0167255Y0137000D01*
X0168853Y0137662D02*
X0173747Y0137662D01*
X0173051Y0138261D02*
X0169549Y0138261D01*
X0170147Y0138859D02*
X0172453Y0138859D01*
X0172075Y0139458D02*
X0170525Y0139458D01*
X0170773Y0140056D02*
X0171827Y0140056D01*
X0171579Y0140655D02*
X0171021Y0140655D01*
X0171100Y0141253D02*
X0171500Y0141253D01*
X0171500Y0141852D02*
X0171100Y0141852D01*
X0171100Y0142450D02*
X0171500Y0142450D01*
X0171622Y0143049D02*
X0170978Y0143049D01*
X0170730Y0143647D02*
X0171870Y0143647D01*
X0172118Y0144246D02*
X0170482Y0144246D01*
X0170044Y0144844D02*
X0172556Y0144844D01*
X0173155Y0145443D02*
X0169445Y0145443D01*
X0168604Y0146041D02*
X0173996Y0146041D01*
X0163996Y0146041D02*
X0158604Y0146041D01*
X0159019Y0145869D02*
X0157255Y0146600D01*
X0155345Y0146600D01*
X0153581Y0145869D01*
X0152231Y0144519D01*
X0151500Y0142755D01*
X0151500Y0140845D01*
X0152231Y0139081D01*
X0153581Y0137731D01*
X0155345Y0137000D01*
X0157255Y0137000D01*
X0159019Y0137731D01*
X0160369Y0139081D01*
X0161100Y0140845D01*
X0161100Y0142755D01*
X0160369Y0144519D01*
X0159019Y0145869D01*
X0159445Y0145443D02*
X0163155Y0145443D01*
X0162556Y0144844D02*
X0160044Y0144844D01*
X0160482Y0144246D02*
X0162118Y0144246D01*
X0161870Y0143647D02*
X0160730Y0143647D01*
X0160978Y0143049D02*
X0161622Y0143049D01*
X0161500Y0142450D02*
X0161100Y0142450D01*
X0161100Y0141852D02*
X0161500Y0141852D01*
X0161500Y0141253D02*
X0161100Y0141253D01*
X0161021Y0140655D02*
X0161579Y0140655D01*
X0161827Y0140056D02*
X0160773Y0140056D01*
X0160525Y0139458D02*
X0162075Y0139458D01*
X0162453Y0138859D02*
X0160147Y0138859D01*
X0159549Y0138261D02*
X0163051Y0138261D01*
X0163747Y0137662D02*
X0158853Y0137662D01*
X0157408Y0137064D02*
X0165192Y0137064D01*
X0155192Y0137064D02*
X0147408Y0137064D01*
X0147255Y0137000D02*
X0149019Y0137731D01*
X0150369Y0139081D01*
X0151100Y0140845D01*
X0151100Y0142755D01*
X0150369Y0144519D01*
X0149019Y0145869D01*
X0147255Y0146600D01*
X0145345Y0146600D01*
X0143581Y0145869D01*
X0142231Y0144519D01*
X0141500Y0142755D01*
X0141500Y0140845D01*
X0142231Y0139081D01*
X0143581Y0137731D01*
X0145345Y0137000D01*
X0147255Y0137000D01*
X0148853Y0137662D02*
X0153747Y0137662D01*
X0153051Y0138261D02*
X0149549Y0138261D01*
X0150147Y0138859D02*
X0152453Y0138859D01*
X0152075Y0139458D02*
X0150525Y0139458D01*
X0150773Y0140056D02*
X0151827Y0140056D01*
X0151579Y0140655D02*
X0151021Y0140655D01*
X0151100Y0141253D02*
X0151500Y0141253D01*
X0151500Y0141852D02*
X0151100Y0141852D01*
X0151100Y0142450D02*
X0151500Y0142450D01*
X0151622Y0143049D02*
X0150978Y0143049D01*
X0150730Y0143647D02*
X0151870Y0143647D01*
X0152118Y0144246D02*
X0150482Y0144246D01*
X0150044Y0144844D02*
X0152556Y0144844D01*
X0153155Y0145443D02*
X0149445Y0145443D01*
X0148604Y0146041D02*
X0153996Y0146041D01*
X0143996Y0146041D02*
X0138604Y0146041D01*
X0139019Y0145869D02*
X0137255Y0146600D01*
X0135345Y0146600D01*
X0133581Y0145869D01*
X0132231Y0144519D01*
X0131500Y0142755D01*
X0131500Y0140845D01*
X0132231Y0139081D01*
X0133581Y0137731D01*
X0135345Y0137000D01*
X0137255Y0137000D01*
X0139019Y0137731D01*
X0140369Y0139081D01*
X0141100Y0140845D01*
X0141100Y0142755D01*
X0140369Y0144519D01*
X0139019Y0145869D01*
X0139445Y0145443D02*
X0143155Y0145443D01*
X0142556Y0144844D02*
X0140044Y0144844D01*
X0140482Y0144246D02*
X0142118Y0144246D01*
X0141870Y0143647D02*
X0140730Y0143647D01*
X0140978Y0143049D02*
X0141622Y0143049D01*
X0141500Y0142450D02*
X0141100Y0142450D01*
X0141100Y0141852D02*
X0141500Y0141852D01*
X0141500Y0141253D02*
X0141100Y0141253D01*
X0141021Y0140655D02*
X0141579Y0140655D01*
X0141827Y0140056D02*
X0140773Y0140056D01*
X0140525Y0139458D02*
X0142075Y0139458D01*
X0142453Y0138859D02*
X0140147Y0138859D01*
X0139549Y0138261D02*
X0143051Y0138261D01*
X0143747Y0137662D02*
X0138853Y0137662D01*
X0137408Y0137064D02*
X0145192Y0137064D01*
X0135192Y0137064D02*
X0127408Y0137064D01*
X0127255Y0137000D02*
X0129019Y0137731D01*
X0130369Y0139081D01*
X0131100Y0140845D01*
X0131100Y0142755D01*
X0130369Y0144519D01*
X0129019Y0145869D01*
X0127255Y0146600D01*
X0125345Y0146600D01*
X0123581Y0145869D01*
X0122231Y0144519D01*
X0121500Y0142755D01*
X0121500Y0140845D01*
X0122231Y0139081D01*
X0123581Y0137731D01*
X0125345Y0137000D01*
X0127255Y0137000D01*
X0128853Y0137662D02*
X0133747Y0137662D01*
X0133051Y0138261D02*
X0129549Y0138261D01*
X0130147Y0138859D02*
X0132453Y0138859D01*
X0132075Y0139458D02*
X0130525Y0139458D01*
X0130773Y0140056D02*
X0131827Y0140056D01*
X0131579Y0140655D02*
X0131021Y0140655D01*
X0131100Y0141253D02*
X0131500Y0141253D01*
X0131500Y0141852D02*
X0131100Y0141852D01*
X0131100Y0142450D02*
X0131500Y0142450D01*
X0131622Y0143049D02*
X0130978Y0143049D01*
X0130730Y0143647D02*
X0131870Y0143647D01*
X0132118Y0144246D02*
X0130482Y0144246D01*
X0130044Y0144844D02*
X0132556Y0144844D01*
X0133155Y0145443D02*
X0129445Y0145443D01*
X0128604Y0146041D02*
X0133996Y0146041D01*
X0123996Y0146041D02*
X0118604Y0146041D01*
X0119019Y0145869D02*
X0117255Y0146600D01*
X0115345Y0146600D01*
X0113581Y0145869D01*
X0112231Y0144519D01*
X0111500Y0142755D01*
X0111500Y0140845D01*
X0112231Y0139081D01*
X0113581Y0137731D01*
X0115345Y0137000D01*
X0117255Y0137000D01*
X0119019Y0137731D01*
X0120369Y0139081D01*
X0121100Y0140845D01*
X0121100Y0142755D01*
X0120369Y0144519D01*
X0119019Y0145869D01*
X0119445Y0145443D02*
X0123155Y0145443D01*
X0122556Y0144844D02*
X0120044Y0144844D01*
X0120482Y0144246D02*
X0122118Y0144246D01*
X0121870Y0143647D02*
X0120730Y0143647D01*
X0120978Y0143049D02*
X0121622Y0143049D01*
X0121500Y0142450D02*
X0121100Y0142450D01*
X0121100Y0141852D02*
X0121500Y0141852D01*
X0121500Y0141253D02*
X0121100Y0141253D01*
X0121021Y0140655D02*
X0121579Y0140655D01*
X0121827Y0140056D02*
X0120773Y0140056D01*
X0120525Y0139458D02*
X0122075Y0139458D01*
X0122453Y0138859D02*
X0120147Y0138859D01*
X0119549Y0138261D02*
X0123051Y0138261D01*
X0123747Y0137662D02*
X0118853Y0137662D01*
X0117408Y0137064D02*
X0125192Y0137064D01*
X0115192Y0137064D02*
X0107408Y0137064D01*
X0107255Y0137000D02*
X0109019Y0137731D01*
X0110369Y0139081D01*
X0111100Y0140845D01*
X0111100Y0142755D01*
X0110369Y0144519D01*
X0109019Y0145869D01*
X0107255Y0146600D01*
X0105345Y0146600D01*
X0103581Y0145869D01*
X0102231Y0144519D01*
X0101500Y0142755D01*
X0101500Y0140845D01*
X0102231Y0139081D01*
X0103581Y0137731D01*
X0105345Y0137000D01*
X0107255Y0137000D01*
X0108853Y0137662D02*
X0113747Y0137662D01*
X0113051Y0138261D02*
X0109549Y0138261D01*
X0110147Y0138859D02*
X0112453Y0138859D01*
X0112075Y0139458D02*
X0110525Y0139458D01*
X0110773Y0140056D02*
X0111827Y0140056D01*
X0111579Y0140655D02*
X0111021Y0140655D01*
X0111100Y0141253D02*
X0111500Y0141253D01*
X0111500Y0141852D02*
X0111100Y0141852D01*
X0111100Y0142450D02*
X0111500Y0142450D01*
X0111622Y0143049D02*
X0110978Y0143049D01*
X0110730Y0143647D02*
X0111870Y0143647D01*
X0112118Y0144246D02*
X0110482Y0144246D01*
X0110044Y0144844D02*
X0112556Y0144844D01*
X0113155Y0145443D02*
X0109445Y0145443D01*
X0108604Y0146041D02*
X0113996Y0146041D01*
X0103996Y0146041D02*
X0098604Y0146041D01*
X0099019Y0145869D02*
X0097255Y0146600D01*
X0095345Y0146600D01*
X0093581Y0145869D01*
X0092231Y0144519D01*
X0091500Y0142755D01*
X0091500Y0140845D01*
X0092231Y0139081D01*
X0093581Y0137731D01*
X0095345Y0137000D01*
X0097255Y0137000D01*
X0099019Y0137731D01*
X0100369Y0139081D01*
X0101100Y0140845D01*
X0101100Y0142755D01*
X0100369Y0144519D01*
X0099019Y0145869D01*
X0099445Y0145443D02*
X0103155Y0145443D01*
X0102556Y0144844D02*
X0100044Y0144844D01*
X0100482Y0144246D02*
X0102118Y0144246D01*
X0101870Y0143647D02*
X0100730Y0143647D01*
X0100978Y0143049D02*
X0101622Y0143049D01*
X0101500Y0142450D02*
X0101100Y0142450D01*
X0101100Y0141852D02*
X0101500Y0141852D01*
X0101500Y0141253D02*
X0101100Y0141253D01*
X0101021Y0140655D02*
X0101579Y0140655D01*
X0101827Y0140056D02*
X0100773Y0140056D01*
X0100525Y0139458D02*
X0102075Y0139458D01*
X0102453Y0138859D02*
X0100147Y0138859D01*
X0099549Y0138261D02*
X0103051Y0138261D01*
X0103747Y0137662D02*
X0098853Y0137662D01*
X0097408Y0137064D02*
X0105192Y0137064D01*
X0095192Y0137064D02*
X0087408Y0137064D01*
X0087255Y0137000D02*
X0089019Y0137731D01*
X0090369Y0139081D01*
X0091100Y0140845D01*
X0091100Y0142755D01*
X0090369Y0144519D01*
X0089019Y0145869D01*
X0087255Y0146600D01*
X0085345Y0146600D01*
X0083581Y0145869D01*
X0082231Y0144519D01*
X0081500Y0142755D01*
X0081500Y0140845D01*
X0082231Y0139081D01*
X0083581Y0137731D01*
X0085345Y0137000D01*
X0087255Y0137000D01*
X0088853Y0137662D02*
X0093747Y0137662D01*
X0093051Y0138261D02*
X0089549Y0138261D01*
X0090147Y0138859D02*
X0092453Y0138859D01*
X0092075Y0139458D02*
X0090525Y0139458D01*
X0090773Y0140056D02*
X0091827Y0140056D01*
X0091579Y0140655D02*
X0091021Y0140655D01*
X0091100Y0141253D02*
X0091500Y0141253D01*
X0091500Y0141852D02*
X0091100Y0141852D01*
X0091100Y0142450D02*
X0091500Y0142450D01*
X0091622Y0143049D02*
X0090978Y0143049D01*
X0090730Y0143647D02*
X0091870Y0143647D01*
X0092118Y0144246D02*
X0090482Y0144246D01*
X0090044Y0144844D02*
X0092556Y0144844D01*
X0093155Y0145443D02*
X0089445Y0145443D01*
X0088604Y0146041D02*
X0093996Y0146041D01*
X0083996Y0146041D02*
X0078604Y0146041D01*
X0079019Y0145869D02*
X0077255Y0146600D01*
X0075345Y0146600D01*
X0073581Y0145869D01*
X0072231Y0144519D01*
X0071500Y0142755D01*
X0071500Y0140845D01*
X0072231Y0139081D01*
X0073581Y0137731D01*
X0075345Y0137000D01*
X0077255Y0137000D01*
X0079019Y0137731D01*
X0080369Y0139081D01*
X0081100Y0140845D01*
X0081100Y0142755D01*
X0080369Y0144519D01*
X0079019Y0145869D01*
X0079445Y0145443D02*
X0083155Y0145443D01*
X0082556Y0144844D02*
X0080044Y0144844D01*
X0080482Y0144246D02*
X0082118Y0144246D01*
X0081870Y0143647D02*
X0080730Y0143647D01*
X0080978Y0143049D02*
X0081622Y0143049D01*
X0081500Y0142450D02*
X0081100Y0142450D01*
X0081100Y0141852D02*
X0081500Y0141852D01*
X0081500Y0141253D02*
X0081100Y0141253D01*
X0081021Y0140655D02*
X0081579Y0140655D01*
X0081827Y0140056D02*
X0080773Y0140056D01*
X0080525Y0139458D02*
X0082075Y0139458D01*
X0082453Y0138859D02*
X0080147Y0138859D01*
X0079549Y0138261D02*
X0083051Y0138261D01*
X0083747Y0137662D02*
X0078853Y0137662D01*
X0077408Y0137064D02*
X0085192Y0137064D01*
X0075192Y0137064D02*
X0067408Y0137064D01*
X0067255Y0137000D02*
X0069019Y0137731D01*
X0070369Y0139081D01*
X0071100Y0140845D01*
X0071100Y0142755D01*
X0070369Y0144519D01*
X0069019Y0145869D01*
X0067255Y0146600D01*
X0065345Y0146600D01*
X0063581Y0145869D01*
X0062231Y0144519D01*
X0061500Y0142755D01*
X0061500Y0140845D01*
X0062231Y0139081D01*
X0063581Y0137731D01*
X0065345Y0137000D01*
X0067255Y0137000D01*
X0068853Y0137662D02*
X0073747Y0137662D01*
X0073051Y0138261D02*
X0069549Y0138261D01*
X0070147Y0138859D02*
X0072453Y0138859D01*
X0072075Y0139458D02*
X0070525Y0139458D01*
X0070773Y0140056D02*
X0071827Y0140056D01*
X0071579Y0140655D02*
X0071021Y0140655D01*
X0071100Y0141253D02*
X0071500Y0141253D01*
X0071500Y0141852D02*
X0071100Y0141852D01*
X0071100Y0142450D02*
X0071500Y0142450D01*
X0071622Y0143049D02*
X0070978Y0143049D01*
X0070730Y0143647D02*
X0071870Y0143647D01*
X0072118Y0144246D02*
X0070482Y0144246D01*
X0070044Y0144844D02*
X0072556Y0144844D01*
X0073155Y0145443D02*
X0069445Y0145443D01*
X0068604Y0146041D02*
X0073996Y0146041D01*
X0063996Y0146041D02*
X0058604Y0146041D01*
X0059019Y0145869D02*
X0057255Y0146600D01*
X0055345Y0146600D01*
X0053581Y0145869D01*
X0052231Y0144519D01*
X0051500Y0142755D01*
X0051500Y0140845D01*
X0052231Y0139081D01*
X0053581Y0137731D01*
X0055345Y0137000D01*
X0057255Y0137000D01*
X0059019Y0137731D01*
X0060369Y0139081D01*
X0061100Y0140845D01*
X0061100Y0142755D01*
X0060369Y0144519D01*
X0059019Y0145869D01*
X0059445Y0145443D02*
X0063155Y0145443D01*
X0062556Y0144844D02*
X0060044Y0144844D01*
X0060482Y0144246D02*
X0062118Y0144246D01*
X0061870Y0143647D02*
X0060730Y0143647D01*
X0060978Y0143049D02*
X0061622Y0143049D01*
X0061500Y0142450D02*
X0061100Y0142450D01*
X0061100Y0141852D02*
X0061500Y0141852D01*
X0061500Y0141253D02*
X0061100Y0141253D01*
X0061021Y0140655D02*
X0061579Y0140655D01*
X0061827Y0140056D02*
X0060773Y0140056D01*
X0060525Y0139458D02*
X0062075Y0139458D01*
X0062453Y0138859D02*
X0060147Y0138859D01*
X0059549Y0138261D02*
X0063051Y0138261D01*
X0063747Y0137662D02*
X0058853Y0137662D01*
X0057408Y0137064D02*
X0065192Y0137064D01*
X0055192Y0137064D02*
X0047408Y0137064D01*
X0047255Y0137000D02*
X0049019Y0137731D01*
X0050369Y0139081D01*
X0051100Y0140845D01*
X0051100Y0142755D01*
X0050369Y0144519D01*
X0049019Y0145869D01*
X0047255Y0146600D01*
X0045345Y0146600D01*
X0043581Y0145869D01*
X0042231Y0144519D01*
X0041500Y0142755D01*
X0041500Y0140845D01*
X0042231Y0139081D01*
X0043581Y0137731D01*
X0045345Y0137000D01*
X0047255Y0137000D01*
X0048853Y0137662D02*
X0053747Y0137662D01*
X0053051Y0138261D02*
X0049549Y0138261D01*
X0050147Y0138859D02*
X0052453Y0138859D01*
X0052075Y0139458D02*
X0050525Y0139458D01*
X0050773Y0140056D02*
X0051827Y0140056D01*
X0051579Y0140655D02*
X0051021Y0140655D01*
X0051100Y0141253D02*
X0051500Y0141253D01*
X0051500Y0141852D02*
X0051100Y0141852D01*
X0051100Y0142450D02*
X0051500Y0142450D01*
X0051622Y0143049D02*
X0050978Y0143049D01*
X0050730Y0143647D02*
X0051870Y0143647D01*
X0052118Y0144246D02*
X0050482Y0144246D01*
X0050044Y0144844D02*
X0052556Y0144844D01*
X0053155Y0145443D02*
X0049445Y0145443D01*
X0048604Y0146041D02*
X0053996Y0146041D01*
X0043996Y0146041D02*
X0038604Y0146041D01*
X0039019Y0145869D02*
X0037255Y0146600D01*
X0035345Y0146600D01*
X0033581Y0145869D01*
X0032231Y0144519D01*
X0031500Y0142755D01*
X0031500Y0140845D01*
X0032231Y0139081D01*
X0033581Y0137731D01*
X0035345Y0137000D01*
X0037255Y0137000D01*
X0039019Y0137731D01*
X0040369Y0139081D01*
X0041100Y0140845D01*
X0041100Y0142755D01*
X0040369Y0144519D01*
X0039019Y0145869D01*
X0039445Y0145443D02*
X0043155Y0145443D01*
X0042556Y0144844D02*
X0040044Y0144844D01*
X0040482Y0144246D02*
X0042118Y0144246D01*
X0041870Y0143647D02*
X0040730Y0143647D01*
X0040978Y0143049D02*
X0041622Y0143049D01*
X0041500Y0142450D02*
X0041100Y0142450D01*
X0041100Y0141852D02*
X0041500Y0141852D01*
X0041500Y0141253D02*
X0041100Y0141253D01*
X0041021Y0140655D02*
X0041579Y0140655D01*
X0041827Y0140056D02*
X0040773Y0140056D01*
X0040525Y0139458D02*
X0042075Y0139458D01*
X0042453Y0138859D02*
X0040147Y0138859D01*
X0039549Y0138261D02*
X0043051Y0138261D01*
X0043747Y0137662D02*
X0038853Y0137662D01*
X0037408Y0137064D02*
X0045192Y0137064D01*
X0035192Y0137064D02*
X0027408Y0137064D01*
X0028853Y0137662D02*
X0033747Y0137662D01*
X0033051Y0138261D02*
X0029549Y0138261D01*
X0030147Y0138859D02*
X0032453Y0138859D01*
X0032075Y0139458D02*
X0030525Y0139458D01*
X0030773Y0140056D02*
X0031827Y0140056D01*
X0031579Y0140655D02*
X0031021Y0140655D01*
X0031100Y0141253D02*
X0031500Y0141253D01*
X0031500Y0141852D02*
X0031100Y0141852D01*
X0031100Y0142450D02*
X0031500Y0142450D01*
X0031622Y0143049D02*
X0030978Y0143049D01*
X0030730Y0143647D02*
X0031870Y0143647D01*
X0032118Y0144246D02*
X0030482Y0144246D01*
X0030044Y0144844D02*
X0032556Y0144844D01*
X0033155Y0145443D02*
X0029445Y0145443D01*
X0028604Y0146041D02*
X0033996Y0146041D01*
X0044695Y0125675D02*
X0042425Y0123405D01*
X0042425Y0120195D01*
X0044695Y0117925D01*
X0047905Y0117925D01*
X0050175Y0120195D01*
X0050175Y0123405D01*
X0047905Y0125675D01*
X0044695Y0125675D01*
X0044114Y0125093D02*
X0038486Y0125093D01*
X0039085Y0124495D02*
X0043515Y0124495D01*
X0042917Y0123896D02*
X0039683Y0123896D01*
X0040175Y0123298D02*
X0042425Y0123298D01*
X0042425Y0122699D02*
X0040175Y0122699D01*
X0040175Y0122101D02*
X0042425Y0122101D01*
X0042425Y0121502D02*
X0040175Y0121502D01*
X0040175Y0120904D02*
X0042425Y0120904D01*
X0042425Y0120305D02*
X0040175Y0120305D01*
X0039687Y0119707D02*
X0042913Y0119707D01*
X0043512Y0119108D02*
X0039088Y0119108D01*
X0038489Y0118510D02*
X0044110Y0118510D01*
X0048489Y0118510D02*
X0054110Y0118510D01*
X0054695Y0117925D02*
X0057905Y0117925D01*
X0060175Y0120195D01*
X0060175Y0123405D01*
X0057905Y0125675D01*
X0054695Y0125675D01*
X0052425Y0123405D01*
X0052425Y0120195D01*
X0054695Y0117925D01*
X0053512Y0119108D02*
X0049088Y0119108D01*
X0049687Y0119707D02*
X0052913Y0119707D01*
X0052425Y0120305D02*
X0050175Y0120305D01*
X0050175Y0120904D02*
X0052425Y0120904D01*
X0052425Y0121502D02*
X0050175Y0121502D01*
X0050175Y0122101D02*
X0052425Y0122101D01*
X0052425Y0122699D02*
X0050175Y0122699D01*
X0050175Y0123298D02*
X0052425Y0123298D01*
X0052917Y0123896D02*
X0049683Y0123896D01*
X0049085Y0124495D02*
X0053515Y0124495D01*
X0054114Y0125093D02*
X0048486Y0125093D01*
X0058486Y0125093D02*
X0064114Y0125093D01*
X0064695Y0125675D02*
X0062425Y0123405D01*
X0062425Y0120195D01*
X0064695Y0117925D01*
X0067905Y0117925D01*
X0070175Y0120195D01*
X0070175Y0123405D01*
X0067905Y0125675D01*
X0064695Y0125675D01*
X0063515Y0124495D02*
X0059085Y0124495D01*
X0059683Y0123896D02*
X0062917Y0123896D01*
X0062425Y0123298D02*
X0060175Y0123298D01*
X0060175Y0122699D02*
X0062425Y0122699D01*
X0062425Y0122101D02*
X0060175Y0122101D01*
X0060175Y0121502D02*
X0062425Y0121502D01*
X0062425Y0120904D02*
X0060175Y0120904D01*
X0060175Y0120305D02*
X0062425Y0120305D01*
X0062913Y0119707D02*
X0059687Y0119707D01*
X0059088Y0119108D02*
X0063512Y0119108D01*
X0064110Y0118510D02*
X0058489Y0118510D01*
X0068489Y0118510D02*
X0074110Y0118510D01*
X0074695Y0117925D02*
X0077905Y0117925D01*
X0080175Y0120195D01*
X0080175Y0123405D01*
X0077905Y0125675D01*
X0074695Y0125675D01*
X0072425Y0123405D01*
X0072425Y0120195D01*
X0074695Y0117925D01*
X0073512Y0119108D02*
X0069088Y0119108D01*
X0069687Y0119707D02*
X0072913Y0119707D01*
X0072425Y0120305D02*
X0070175Y0120305D01*
X0070175Y0120904D02*
X0072425Y0120904D01*
X0072425Y0121502D02*
X0070175Y0121502D01*
X0070175Y0122101D02*
X0072425Y0122101D01*
X0072425Y0122699D02*
X0070175Y0122699D01*
X0070175Y0123298D02*
X0072425Y0123298D01*
X0072917Y0123896D02*
X0069683Y0123896D01*
X0069085Y0124495D02*
X0073515Y0124495D01*
X0074114Y0125093D02*
X0068486Y0125093D01*
X0078486Y0125093D02*
X0084114Y0125093D01*
X0084695Y0125675D02*
X0082425Y0123405D01*
X0082425Y0120195D01*
X0084695Y0117925D01*
X0087905Y0117925D01*
X0090175Y0120195D01*
X0090175Y0123405D01*
X0087905Y0125675D01*
X0084695Y0125675D01*
X0083515Y0124495D02*
X0079085Y0124495D01*
X0079683Y0123896D02*
X0082917Y0123896D01*
X0082425Y0123298D02*
X0080175Y0123298D01*
X0080175Y0122699D02*
X0082425Y0122699D01*
X0082425Y0122101D02*
X0080175Y0122101D01*
X0080175Y0121502D02*
X0082425Y0121502D01*
X0082425Y0120904D02*
X0080175Y0120904D01*
X0080175Y0120305D02*
X0082425Y0120305D01*
X0082913Y0119707D02*
X0079687Y0119707D01*
X0079088Y0119108D02*
X0083512Y0119108D01*
X0084110Y0118510D02*
X0078489Y0118510D01*
X0088489Y0118510D02*
X0094110Y0118510D01*
X0094695Y0117925D02*
X0097905Y0117925D01*
X0100175Y0120195D01*
X0100175Y0123405D01*
X0097905Y0125675D01*
X0094695Y0125675D01*
X0092425Y0123405D01*
X0092425Y0120195D01*
X0094695Y0117925D01*
X0093512Y0119108D02*
X0089088Y0119108D01*
X0089687Y0119707D02*
X0092913Y0119707D01*
X0092425Y0120305D02*
X0090175Y0120305D01*
X0090175Y0120904D02*
X0092425Y0120904D01*
X0092425Y0121502D02*
X0090175Y0121502D01*
X0090175Y0122101D02*
X0092425Y0122101D01*
X0092425Y0122699D02*
X0090175Y0122699D01*
X0090175Y0123298D02*
X0092425Y0123298D01*
X0092917Y0123896D02*
X0089683Y0123896D01*
X0089085Y0124495D02*
X0093515Y0124495D01*
X0094114Y0125093D02*
X0088486Y0125093D01*
X0098486Y0125093D02*
X0104114Y0125093D01*
X0104695Y0125675D02*
X0102425Y0123405D01*
X0102425Y0120195D01*
X0104695Y0117925D01*
X0107905Y0117925D01*
X0110175Y0120195D01*
X0110175Y0123405D01*
X0107905Y0125675D01*
X0104695Y0125675D01*
X0103515Y0124495D02*
X0099085Y0124495D01*
X0099683Y0123896D02*
X0102917Y0123896D01*
X0102425Y0123298D02*
X0100175Y0123298D01*
X0100175Y0122699D02*
X0102425Y0122699D01*
X0102425Y0122101D02*
X0100175Y0122101D01*
X0100175Y0121502D02*
X0102425Y0121502D01*
X0102425Y0120904D02*
X0100175Y0120904D01*
X0100175Y0120305D02*
X0102425Y0120305D01*
X0102913Y0119707D02*
X0099687Y0119707D01*
X0099088Y0119108D02*
X0103512Y0119108D01*
X0104110Y0118510D02*
X0098489Y0118510D01*
X0108489Y0118510D02*
X0114110Y0118510D01*
X0114695Y0117925D02*
X0117905Y0117925D01*
X0120175Y0120195D01*
X0120175Y0123405D01*
X0117905Y0125675D01*
X0114695Y0125675D01*
X0112425Y0123405D01*
X0112425Y0120195D01*
X0114695Y0117925D01*
X0113512Y0119108D02*
X0109088Y0119108D01*
X0109687Y0119707D02*
X0112913Y0119707D01*
X0112425Y0120305D02*
X0110175Y0120305D01*
X0110175Y0120904D02*
X0112425Y0120904D01*
X0112425Y0121502D02*
X0110175Y0121502D01*
X0110175Y0122101D02*
X0112425Y0122101D01*
X0112425Y0122699D02*
X0110175Y0122699D01*
X0110175Y0123298D02*
X0112425Y0123298D01*
X0112917Y0123896D02*
X0109683Y0123896D01*
X0109085Y0124495D02*
X0113515Y0124495D01*
X0114114Y0125093D02*
X0108486Y0125093D01*
X0118486Y0125093D02*
X0124114Y0125093D01*
X0124695Y0125675D02*
X0122425Y0123405D01*
X0122425Y0120195D01*
X0124695Y0117925D01*
X0127905Y0117925D01*
X0130175Y0120195D01*
X0130175Y0123405D01*
X0127905Y0125675D01*
X0124695Y0125675D01*
X0123515Y0124495D02*
X0119085Y0124495D01*
X0119683Y0123896D02*
X0122917Y0123896D01*
X0122425Y0123298D02*
X0120175Y0123298D01*
X0120175Y0122699D02*
X0122425Y0122699D01*
X0122425Y0122101D02*
X0120175Y0122101D01*
X0120175Y0121502D02*
X0122425Y0121502D01*
X0122425Y0120904D02*
X0120175Y0120904D01*
X0120175Y0120305D02*
X0122425Y0120305D01*
X0122913Y0119707D02*
X0119687Y0119707D01*
X0119088Y0119108D02*
X0123512Y0119108D01*
X0124110Y0118510D02*
X0118489Y0118510D01*
X0128489Y0118510D02*
X0134110Y0118510D01*
X0134695Y0117925D02*
X0137905Y0117925D01*
X0140175Y0120195D01*
X0140175Y0123405D01*
X0137905Y0125675D01*
X0134695Y0125675D01*
X0132425Y0123405D01*
X0132425Y0120195D01*
X0134695Y0117925D01*
X0133512Y0119108D02*
X0129088Y0119108D01*
X0129687Y0119707D02*
X0132913Y0119707D01*
X0132425Y0120305D02*
X0130175Y0120305D01*
X0130175Y0120904D02*
X0132425Y0120904D01*
X0132425Y0121502D02*
X0130175Y0121502D01*
X0130175Y0122101D02*
X0132425Y0122101D01*
X0132425Y0122699D02*
X0130175Y0122699D01*
X0130175Y0123298D02*
X0132425Y0123298D01*
X0132917Y0123896D02*
X0129683Y0123896D01*
X0129085Y0124495D02*
X0133515Y0124495D01*
X0134114Y0125093D02*
X0128486Y0125093D01*
X0138486Y0125093D02*
X0144114Y0125093D01*
X0144695Y0125675D02*
X0142425Y0123405D01*
X0142425Y0120195D01*
X0144695Y0117925D01*
X0147905Y0117925D01*
X0150175Y0120195D01*
X0150175Y0123405D01*
X0147905Y0125675D01*
X0144695Y0125675D01*
X0143515Y0124495D02*
X0139085Y0124495D01*
X0139683Y0123896D02*
X0142917Y0123896D01*
X0142425Y0123298D02*
X0140175Y0123298D01*
X0140175Y0122699D02*
X0142425Y0122699D01*
X0142425Y0122101D02*
X0140175Y0122101D01*
X0140175Y0121502D02*
X0142425Y0121502D01*
X0142425Y0120904D02*
X0140175Y0120904D01*
X0140175Y0120305D02*
X0142425Y0120305D01*
X0142913Y0119707D02*
X0139687Y0119707D01*
X0139088Y0119108D02*
X0143512Y0119108D01*
X0144110Y0118510D02*
X0138489Y0118510D01*
X0148489Y0118510D02*
X0154110Y0118510D01*
X0154695Y0117925D02*
X0152425Y0120195D01*
X0152425Y0123405D01*
X0154695Y0125675D01*
X0157905Y0125675D01*
X0160175Y0123405D01*
X0160175Y0120195D01*
X0157905Y0117925D01*
X0154695Y0117925D01*
X0153512Y0119108D02*
X0149088Y0119108D01*
X0149687Y0119707D02*
X0152913Y0119707D01*
X0152425Y0120305D02*
X0150175Y0120305D01*
X0150175Y0120904D02*
X0152425Y0120904D01*
X0152425Y0121502D02*
X0150175Y0121502D01*
X0150175Y0122101D02*
X0152425Y0122101D01*
X0152425Y0122699D02*
X0150175Y0122699D01*
X0150175Y0123298D02*
X0152425Y0123298D01*
X0152917Y0123896D02*
X0149683Y0123896D01*
X0149085Y0124495D02*
X0153515Y0124495D01*
X0154114Y0125093D02*
X0148486Y0125093D01*
X0158486Y0125093D02*
X0164114Y0125093D01*
X0164695Y0125675D02*
X0162425Y0123405D01*
X0162425Y0120195D01*
X0164695Y0117925D01*
X0167905Y0117925D01*
X0170175Y0120195D01*
X0170175Y0123405D01*
X0167905Y0125675D01*
X0164695Y0125675D01*
X0163515Y0124495D02*
X0159085Y0124495D01*
X0159683Y0123896D02*
X0162917Y0123896D01*
X0162425Y0123298D02*
X0160175Y0123298D01*
X0160175Y0122699D02*
X0162425Y0122699D01*
X0162425Y0122101D02*
X0160175Y0122101D01*
X0160175Y0121502D02*
X0162425Y0121502D01*
X0162425Y0120904D02*
X0160175Y0120904D01*
X0160175Y0120305D02*
X0162425Y0120305D01*
X0162913Y0119707D02*
X0159687Y0119707D01*
X0159088Y0119108D02*
X0163512Y0119108D01*
X0164110Y0118510D02*
X0158489Y0118510D01*
X0168489Y0118510D02*
X0174110Y0118510D01*
X0174695Y0117925D02*
X0172425Y0120195D01*
X0172425Y0123405D01*
X0174695Y0125675D01*
X0177905Y0125675D01*
X0180175Y0123405D01*
X0180175Y0120195D01*
X0177905Y0117925D01*
X0174695Y0117925D01*
X0173512Y0119108D02*
X0169088Y0119108D01*
X0169687Y0119707D02*
X0172913Y0119707D01*
X0172425Y0120305D02*
X0170175Y0120305D01*
X0170175Y0120904D02*
X0172425Y0120904D01*
X0172425Y0121502D02*
X0170175Y0121502D01*
X0170175Y0122101D02*
X0172425Y0122101D01*
X0172425Y0122699D02*
X0170175Y0122699D01*
X0170175Y0123298D02*
X0172425Y0123298D01*
X0172917Y0123896D02*
X0169683Y0123896D01*
X0169085Y0124495D02*
X0173515Y0124495D01*
X0174114Y0125093D02*
X0168486Y0125093D01*
X0178486Y0125093D02*
X0184114Y0125093D01*
X0184695Y0125675D02*
X0182425Y0123405D01*
X0182425Y0120195D01*
X0184695Y0117925D01*
X0187905Y0117925D01*
X0190175Y0120195D01*
X0190175Y0123405D01*
X0187905Y0125675D01*
X0184695Y0125675D01*
X0183515Y0124495D02*
X0179085Y0124495D01*
X0179683Y0123896D02*
X0182917Y0123896D01*
X0182425Y0123298D02*
X0180175Y0123298D01*
X0180175Y0122699D02*
X0182425Y0122699D01*
X0182425Y0122101D02*
X0180175Y0122101D01*
X0180175Y0121502D02*
X0182425Y0121502D01*
X0182425Y0120904D02*
X0180175Y0120904D01*
X0180175Y0120305D02*
X0182425Y0120305D01*
X0182913Y0119707D02*
X0179687Y0119707D01*
X0179088Y0119108D02*
X0183512Y0119108D01*
X0184110Y0118510D02*
X0178489Y0118510D01*
X0188489Y0118510D02*
X0194110Y0118510D01*
X0193512Y0119108D02*
X0189088Y0119108D01*
X0189687Y0119707D02*
X0192913Y0119707D01*
X0192425Y0120305D02*
X0190175Y0120305D01*
X0190175Y0120904D02*
X0192425Y0120904D01*
X0192425Y0121502D02*
X0190175Y0121502D01*
X0190175Y0122101D02*
X0192425Y0122101D01*
X0192425Y0122699D02*
X0190175Y0122699D01*
X0190175Y0123298D02*
X0192425Y0123298D01*
X0192917Y0123896D02*
X0189683Y0123896D01*
X0189085Y0124495D02*
X0193515Y0124495D01*
X0194114Y0125093D02*
X0188486Y0125093D01*
X0034114Y0125093D02*
X0030277Y0125093D01*
X0030375Y0124495D02*
X0033515Y0124495D01*
X0032917Y0123896D02*
X0030375Y0123896D01*
X0030375Y0123298D02*
X0032425Y0123298D01*
X0032425Y0122699D02*
X0030375Y0122699D01*
X0030375Y0122101D02*
X0032425Y0122101D01*
M02*
