G75*
%MOIN*%
%OFA0B0*%
%FSLAX25Y25*%
%IPPOS*%
%LPD*%
%AMOC8*
5,1,8,0,0,1.08239X$1,22.5*
%
%ADD10C,0.00000*%
%ADD11C,0.07400*%
%ADD12R,0.05550X0.05550*%
%ADD13OC8,0.05550*%
%ADD14C,0.00800*%
D10*
X0001300Y0001800D02*
X0001300Y0159280D01*
X0395001Y0159280D01*
X0395001Y0001800D01*
X0001300Y0001800D01*
D11*
X0026300Y0016800D03*
X0036300Y0016800D03*
X0046300Y0016800D03*
X0056300Y0016800D03*
X0066300Y0016800D03*
X0076300Y0016800D03*
X0086300Y0016800D03*
X0096300Y0016800D03*
X0106300Y0016800D03*
X0116300Y0016800D03*
X0126300Y0016800D03*
X0136300Y0016800D03*
X0146300Y0016800D03*
X0156300Y0016800D03*
X0166300Y0016800D03*
X0176300Y0016800D03*
X0186300Y0016800D03*
X0196300Y0016800D03*
X0266300Y0031800D03*
X0276300Y0031800D03*
X0286300Y0031800D03*
X0296300Y0031800D03*
X0306300Y0031800D03*
X0316300Y0031800D03*
X0316300Y0081800D03*
X0306300Y0081800D03*
X0296300Y0081800D03*
X0286300Y0081800D03*
X0276300Y0081800D03*
X0266300Y0081800D03*
X0326300Y0081800D03*
X0196300Y0141800D03*
X0186300Y0141800D03*
X0176300Y0141800D03*
X0166300Y0141800D03*
X0156300Y0141800D03*
X0146300Y0141800D03*
X0136300Y0141800D03*
X0126300Y0141800D03*
X0116300Y0141800D03*
X0106300Y0141800D03*
X0096300Y0141800D03*
X0086300Y0141800D03*
X0076300Y0141800D03*
X0066300Y0141800D03*
X0056300Y0141800D03*
X0046300Y0141800D03*
X0036300Y0141800D03*
X0026300Y0141800D03*
D12*
X0026300Y0121800D03*
X0026300Y0031800D03*
D13*
X0036300Y0031800D03*
X0046300Y0031800D03*
X0056300Y0031800D03*
X0066300Y0031800D03*
X0076300Y0031800D03*
X0086300Y0031800D03*
X0096300Y0031800D03*
X0106300Y0031800D03*
X0116300Y0031800D03*
X0126300Y0031800D03*
X0136300Y0031800D03*
X0146300Y0031800D03*
X0156300Y0031800D03*
X0166300Y0031800D03*
X0176300Y0031800D03*
X0186300Y0031800D03*
X0196300Y0031800D03*
X0196300Y0121800D03*
X0186300Y0121800D03*
X0176300Y0121800D03*
X0166300Y0121800D03*
X0156300Y0121800D03*
X0146300Y0121800D03*
X0136300Y0121800D03*
X0126300Y0121800D03*
X0116300Y0121800D03*
X0106300Y0121800D03*
X0096300Y0121800D03*
X0086300Y0121800D03*
X0076300Y0121800D03*
X0066300Y0121800D03*
X0056300Y0121800D03*
X0046300Y0121800D03*
X0036300Y0121800D03*
D14*
X0196300Y0121800D02*
X0246300Y0121800D01*
X0286300Y0081800D01*
X0286300Y0041800D01*
X0296300Y0031800D01*
X0286300Y0031800D02*
X0276300Y0041800D01*
X0276300Y0081800D01*
X0271300Y0076800D02*
X0266300Y0081800D01*
X0271300Y0076800D02*
X0271300Y0036800D01*
X0266300Y0031800D01*
X0247825Y0050275D01*
X0044861Y0050275D01*
X0036300Y0041714D01*
X0036300Y0031800D01*
X0106300Y0031800D02*
X0116300Y0041800D01*
X0236300Y0041800D01*
X0256300Y0021800D01*
X0276300Y0021800D01*
X0279300Y0024800D01*
X0286300Y0031800D01*
M02*
