%
M48
M72
T01C0.03150
T02C0.04000
%
T01
X26300Y31800
X36300Y31800
X46300Y31800
X56300Y31800
X66300Y31800
X76300Y31800
X86300Y31800
X96300Y31800
X106300Y31800
X116300Y31800
X126300Y31800
X136300Y31800
X146300Y31800
X156300Y31800
X166300Y31800
X176300Y31800
X186300Y31800
X196300Y31800
X196300Y121800
X186300Y121800
X176300Y121800
X166300Y121800
X156300Y121800
X146300Y121800
X136300Y121800
X126300Y121800
X116300Y121800
X106300Y121800
X96300Y121800
X86300Y121800
X76300Y121800
X66300Y121800
X56300Y121800
X46300Y121800
X36300Y121800
X26300Y121800
T02
X26300Y16800
X36300Y16800
X46300Y16800
X56300Y16800
X66300Y16800
X76300Y16800
X86300Y16800
X96300Y16800
X106300Y16800
X116300Y16800
X126300Y16800
X136300Y16800
X146300Y16800
X156300Y16800
X166300Y16800
X176300Y16800
X186300Y16800
X196300Y16800
X266300Y31800
X276300Y31800
X286300Y31800
X296300Y31800
X306300Y31800
X316300Y31800
X316300Y81800
X306300Y81800
X296300Y81800
X286300Y81800
X276300Y81800
X266300Y81800
X326300Y81800
X196300Y141800
X186300Y141800
X176300Y141800
X166300Y141800
X156300Y141800
X146300Y141800
X136300Y141800
X126300Y141800
X116300Y141800
X106300Y141800
X96300Y141800
X86300Y141800
X76300Y141800
X66300Y141800
X56300Y141800
X46300Y141800
X36300Y141800
X26300Y141800
M30
